<?xml version="1.0" encoding="UTF-8" standalone="no" ?>
<!DOCTYPE svg PUBLIC "-//W3C//DTD SVG 1.1//EN" "http://www.w3.org/Graphics/SVG/1.1/DTD/svg11.dtd">
<svg xmlns="http://www.w3.org/2000/svg" xmlns:xlink="http://www.w3.org/1999/xlink" version="1.1" width="175" height="184.99999999999997" viewBox="0 -14.285714285714278 500.00000000000006 528.5714285714286" xml:space="preserve">
<desc>Created with Fabric.js 4.6.0</desc>
<defs>
</defs>
<g transform="matrix(1 0 0 1 250 250)" id="K_zGoedPPBE1IV1YSGuR9"  >
<path style="stroke: rgb(255,255,255); stroke-width: 0.07; stroke-dasharray: none; stroke-linecap: butt; stroke-dashoffset: 0; stroke-linejoin: miter; stroke-miterlimit: 4; fill: rgb(0,0,0); fill-rule: nonzero; opacity: 1;" vector-effect="non-scaling-stroke"  transform=" translate(-233, -247.11)" d="M 221.81051 493.33631 C 199.06966 491.21203 188.82734 489.81301 177.05531 487.21679 C 168.43896999999998 485.31571 158.72673 482.40773 152.09682999999998 479.74597 C 146.78506 477.61179 145.14854999999997 477.4304 135.66136999999998 477.93272 C 132.47447999999997 478.10060000000004 129.39415999999997 477.43353 124.83661999999998 475.58418 C 122.67418999999998 474.70774 114.98947999999999 470.91004 114.98947999999999 470.71879 C 114.98947999999999 470.43071000000003 118.19144999999999 469.24637 120.01328999999998 468.8593 C 121.58908999999998 468.52376000000004 124.64982999999998 468.53243000000003 126.63125999999998 468.8741 C 129.23647 469.32627 133.24903999999998 470.77134 136.98993 472.60644 C 140.73584 474.44254 141.31489 474.58312 142.05581999999998 473.84220000000005 C 142.60505999999998 473.29296000000005 142.60174999999998 473.01763000000005 142.05088999999998 472.36071000000004 C 141.71155 471.95964000000004 141.10107 471.66205 139.43735999999998 471.09281000000004 C 135.36397 469.69520000000006 133.18278999999998 468.46843000000007 130.85872999999998 466.2608 C 128.23958 463.77241000000004 126.70151999999997 460.99545 125.54163999999997 456.66577 L 125.12656999999997 455.11361 L 125.60184999999997 455.22953 C 127.00856999999996 455.56962 129.85178999999997 456.68296000000004 131.48803999999998 457.53196 C 135.48153 459.60589000000004 138.44548999999998 462.1738 143.64674 468.06802000000005 C 145.32818 469.96997000000005 147.09063 471.85261 147.56624 472.25233000000003 C 149.13248 473.56191 154.17840999999999 476.04955 159.76103999999998 478.26322000000005 C 171.63427 482.97051000000005 186.24367999999998 486.3769300000001 203.88251999999997 488.54896 C 209.40989999999996 489.22950000000003 213.92456999999996 489.6716 223.91073999999998 490.50613000000004 L 233.02558999999997 491.26968000000005 L 241.21261999999996 490.58950000000004 C 251.12829999999997 489.76520000000005 257.25694 489.16323000000006 262.79695 488.46473000000003 C 284.76353 485.69715 301.85749999999996 481.06529 315.01615 474.31730000000005 C 318.18424999999996 472.69167000000004 318.73864 472.21582000000006 322.64997999999997 467.74739000000005 C 328.88106999999997 460.63534000000004 332.75296 457.75627000000003 338.82050999999996 455.7250000000001 C 339.86908999999997 455.3749700000001 340.75926999999996 455.1192200000001 340.80028999999996 455.1573200000001 C 340.93474 455.2917700000001 339.83952999999997 458.9171300000001 339.22544999999997 460.3672900000001 C 337.08676999999994 465.4370100000001 332.93928999999997 468.9978100000001 326.85353999999995 470.9917000000001 C 325.12044 471.5597800000001 324.17882 471.9990600000001 323.84764999999993 472.3994400000001 C 323.4880999999999 472.83332000000007 323.5677599999999 473.5927700000001 324.01129999999995 473.9551000000001 C 324.72429999999997 474.5327700000001 325.48768999999993 474.36086000000006 328.10272 473.03690000000006 C 332.3991 470.86096000000003 336.22558 469.46200000000005 339.53904 468.85200000000003 C 341.64522 468.46508000000006 345.40182 468.58219 347.07946 469.08948000000004 C 348.58387 469.54205 350.98404 470.54735000000005 350.98404 470.72059 C 350.98404 470.92957 342.97803999999996 474.88181000000003 340.95968 475.67007 C 335.98366 477.61388 333.53195 478.11575 330.04632 477.89281 C 328.72801 477.80892 326.05312999999995 477.74326 324.10083 477.74416 C 319.27373 477.74909 318.9135 477.83188 312.28749999999997 480.36234 C 299.65811999999994 485.18599 284.53200999999996 488.72678 267.05301999999995 490.94596 C 259.2237799999999 491.93942000000004 236.97810999999996 494.11098000000004 233.51545999999996 494.22122 C 232.46229999999997 494.25385 228.06786999999997 493.92274000000003 221.80462999999997 493.33646 z M 213.55831 488.45787 C 210.69194000000002 488.18756 210.70676 488.20699 212.34211000000002 486.90113 C 214.44297000000003 485.22285000000005 217.72884000000002 483.06551 219.36998000000003 482.28803000000005 C 222.15207000000004 480.97365 224.32437000000002 480.44746000000004 226.98038000000003 480.44746000000004 C 229.10081000000002 480.44746000000004 229.67929000000004 480.7092 230.29881000000003 481.95325 C 230.87607000000003 483.10970000000003 230.72785000000002 483.80363 229.72051000000002 484.68906000000004 C 226.32312000000002 487.67159000000004 220.25065 489.08774000000005 213.55539000000002 488.45494 z M 246.47268 488.52395 C 242.68821 488.22588 238.44263999999998 486.61313 236.19298 484.61855 C 235.48975000000002 483.99449000000004 235.41069000000002 483.84523 235.41393 483.13702 C 235.41459 482.19948 235.83401 481.31506 236.48175999999998 480.89087 C 238.16904999999997 479.78587 243.69969999999998 480.67242 247.35876 482.63861 C 250.32783999999998 484.23273 255.25225999999998 487.8679 254.78622 488.12365000000005 C 254.18481999999997 488.45384000000007 248.84035999999998 488.7103200000001 246.47269 488.52395000000007 z M 195.26303 485.36904 C 193.63236999999998 485.12138999999996 190.44514999999998 484.42370999999997 190.1563 484.2552 C 189.93347 484.12488 192.57871999999998 482.47027 195.00202 481.22133 C 198.54368 479.39512 202.15115 478.35553000000004 204.93211 478.35965000000004 C 206.50322 478.36030000000005 208.29229999999998 478.66334000000006 208.94486 479.04005000000006 C 210.03938 479.66909000000004 210.46783 481.56977000000006 209.72727 482.50791000000004 C 209.22399000000001 483.14684000000005 206.097 484.62835 204.24281 485.10399 C 202.29961 485.60284 197.69089 485.73813 195.26303 485.36906 z M 263.03426 485.36904 C 260.62426 484.93118999999996 257.11209 483.49098 256.31876 482.61098999999996 C 255.85818 482.10319999999996 255.77752999999998 480.84056999999996 256.15078 480.05278999999996 C 256.56023 479.19123999999994 257.07299 478.87456999999995 258.51268 478.59822999999994 C 261.89643 477.94177999999994 265.62469 478.64102999999994 270.05980999999997 480.76501999999994 C 272.15211999999997 481.76683999999995 275.93134 483.98089999999996 275.93134 484.20491999999996 C 275.93134 484.35840999999994 271.96948999999995 485.19204999999994 270.01806 485.44852 C 268.15812 485.69476 264.60344 485.65337 263.03718 485.36906 z M 175.49592 480.47769 C 174.08815 480.30507 170.1979 479.55415999999997 169.04127000000003 479.22909 C 168.17039000000003 478.98658 168.22500000000002 478.93093 170.79387000000003 477.37966 C 174.89067000000003 474.90928 179.01008000000002 473.1718 182.18818000000002 472.57568 C 184.01042 472.23499999999996 186.97014000000001 472.20313 188.716 472.50962 C 189.79751000000002 472.69997 190.05301 472.82140999999996 190.6911 473.45596 C 191.81455 474.57834 191.95458 476.22339 191.00802000000002 477.16995000000003 C 190.04293 478.13505000000004 186.81384000000003 479.55103 184.19116000000002 480.15693000000005 C 182.43411000000003 480.56269000000003 177.63851000000003 480.73947000000004 175.49591000000004 480.47773000000007 z M 283.13756 480.38486 C 280.23898 479.93330000000003 276.65575 478.56319 275.22416 477.35661 C 274.13358999999997 476.43865 274.13820999999996 474.73686 275.23402999999996 473.48796 C 275.66786999999994 472.99361 275.99906999999996 472.8271 277.04245999999995 472.59254999999996 C 278.67306999999994 472.22051999999996 281.93929999999995 472.21513999999996 283.8234499999999 472.57874999999996 C 287.1829899999999 473.22634999999997 291.81013999999993 475.23034999999993 295.9442899999999 477.83023999999995 L 297.7749399999999 478.98081999999994 L 297.0105099999999 479.20852999999994 C 295.6826299999999 479.60069999999996 292.0529899999999 480.28538999999995 290.2632599999999 480.48062999999996 C 287.9841699999999 480.72776999999996 285.0807399999999 480.69041 283.1377399999999 480.38786999999996 z M 227.75307 478.5957 C 221.89061 477.70067 216.74114 474.45313000000004 211.33156 468.24184 L 210.01767999999998 466.73258000000004 L 210.96785999999997 466.67719000000005 C 211.48986999999997 466.64849000000004 213.04571999999996 466.75182000000007 214.42171999999997 466.90993000000003 C 221.65454999999997 467.73884000000004 226.34249999999997 469.56672000000003 230.00473999999997 472.99170000000004 C 231.52906999999996 474.41791000000006 231.90117999999998 475.47142 231.40676999999997 476.97188000000006 C 231.06609999999998 478.0065000000001 230.30684999999997 478.58354 229.22095999999996 478.63084000000003 C 228.70764999999997 478.65451 228.04636999999997 478.63577000000004 227.75308999999996 478.58975000000004 z M 235.7022 478.36351 C 234.66225 477.72933 234.10922 475.9691 234.57373 474.75617 C 234.83489 474.06719 237.00559 472.03873 238.66104 470.92981 C 239.49961000000002 470.37008 240.90216 469.61035999999996 241.77816 469.24219999999997 C 244.81726 467.96488999999997 249.70049 466.94899 253.97862 466.70282 C 255.38651000000002 466.62305999999995 255.90825 466.64682999999997 255.86053 466.79114 C 255.70201 467.25233 252.00741000000002 471.20032 250.50201 472.5191 C 246.70367000000002 475.84639999999996 243.22253 477.64029 239.01103 478.43778 C 237.10491000000002 478.80057999999997 236.39131 478.78294 235.7022 478.36345 z M 205.88425 476.04922 C 200.72631 474.69785 196.06981000000002 470.88596 191.83955 464.55763 C 190.31502 462.27423000000005 190.31638 462.38059000000004 191.77378000000002 462.65641 C 197.02942000000002 463.65803 201.83458000000002 465.45214 204.85413000000003 467.53967 C 206.24800000000002 468.50413 208.40049000000002 470.64331 209.29929 471.95791 C 210.23173000000003 473.32397000000003 209.89111000000003 475.07492 208.50792 476.00370000000004 C 207.79953 476.47982 207.55344000000002 476.48425000000003 205.88425 476.04630000000003 z M 257.72191 476.15175 C 256.66474999999997 475.69101 255.93634999999998 474.10195 256.25320999999997 472.95518 C 256.48141999999996 472.12998 257.75300999999996 470.47556 259.19372 469.12509 C 262.30168 466.21759 266.73909 464.25576 273.40164 462.84757 C 274.50072 462.61483000000004 275.39677 462.48485 275.39677 462.55945 C 275.39677 462.63408000000004 274.98702000000003 463.32304000000005 274.48787 464.08795000000003 C 270.18267 470.68160000000006 265.77315999999996 474.40007 260.40999999999997 475.95265000000006 C 258.63527999999997 476.46574000000004 258.47680999999994 476.4788500000001 257.72189 476.1488300000001 z M 97.45868 469.29731 C 88.93982 467.86231 81.92689 466.64632 81.87571 466.59513999999996 C 81.79111 466.51054999999997 82.09514 464.52199999999993 82.21184 464.40529 C 82.24005 464.37708999999995 89.2725 465.52804 97.84146 466.9633 L 113.41952 469.57287 L 113.29883000000001 470.54755 C 113.23333000000001 471.08377 113.12656000000001 471.60963 113.06190000000001 471.71288 C 112.98303000000001 471.8426 107.92718 471.05656999999997 97.45576000000001 469.29438999999996 z M 352.83707 471.34178 C 352.77693999999997 471.02511000000004 352.71610999999996 470.50245 352.70151999999996 470.17704000000003 L 352.67341999999996 469.58913 L 368.11161999999996 466.97521 C 376.60218999999995 465.53916 383.63883 464.38948 383.74990999999994 464.42589 C 383.95948999999996 464.49165 384.27217999999993 466.42584 384.10324999999995 466.59767999999997 C 384.04795999999993 466.65297 377.01598999999993 467.87032999999997 368.47769999999997 469.30577 L 352.95034999999996 471.91567 z M 186.27424 470.27531 C 181.50727999999998 469.39058 177.23441 466.63589 173.02568 461.72906 C 172.04244 460.58289 171.2369 459.57197 171.2369 459.48323 C 171.2369 459.26478 173.8366 459.48389 176.38199 459.91693 C 182.0063 460.87206999999995 185.74467 462.54132 188.56249 465.35913 C 189.80262 466.59926 190.04512 467.03198 190.04512 467.99682 C 190.04512 469.12042 189.14961 470.29487 188.17240999999999 470.4481 C 187.88379999999998 470.49413 187.03007 470.41537 186.27131999999997 470.27528 z M 277.43768 470.38079 C 276.22665 469.88144 275.56949 468.03244 276.18027 466.85227 C 276.58051 466.07917999999995 278.92439 463.95811999999995 280.3703 463.05823 C 283.38138 461.1848 288.29197999999997 459.81548999999995 293.33394999999996 459.44628 C 294.95642999999995 459.32573 294.99674999999996 459.33379 294.72673999999995 459.66029 C 290.35543999999993 464.96409 287.33073999999993 467.54521 283.64604999999995 469.11035999999996 C 281.49254999999994 470.02437999999995 278.19873999999993 470.70023999999995 277.43474999999995 470.38667 z M 169.21892 469.38694 C 165.27139 468.60345 162.02312 466.79564 158.5669 463.46317 C 156.97285 461.92489 154.20084 458.80273 154.20084 458.54591999999997 C 154.20084 458.38237 156.91211 458.64320999999995 159.31293 459.03909999999996 C 164.79703 459.94259999999997 168.41337 461.50483999999994 171.3909 464.26268 C 172.66836999999998 465.44635 173.27373 466.56071 173.09223 467.40322 C 172.89254 468.32556999999997 172.50476 468.94633999999996 171.89387 469.31919999999997 C 171.24156 469.71586999999994 170.90213 469.72509999999994 169.21892 469.38989 z M 294.22229 469.35753 C 293.44916 468.956 292.96448 468.03489 292.96448 466.976 C 292.96448 466.25785 293.07124 466.01627 293.76097 465.16857 C 295.36850999999996 463.19668 298.52263999999997 461.22573 301.74834 460.17725 C 304.34844 459.33337 311.35256999999996 458.18199000000004 311.71112 458.53761000000003 C 311.86541 458.69180000000006 309.50662 461.47805000000005 307.75889 463.20263000000006 C 304.62717000000004 466.29273000000006 301.36085 468.26408000000004 297.97251 469.1114400000001 C 295.75819 469.6654500000001 294.92031 469.7179500000001 294.22523 469.3545500000001 z M 107.88917 466.72716 C 104.83219999999999 466.17201 101.24905999999999 464.62603 98.04203 462.48214 C 95.74522 460.94856000000004 94.02571999999999 459.54174 91.14993 456.84758 C 89.36067 455.17053 89.09473 454.85326 89.35591 454.70808999999997 C 89.52411 454.61442999999997 91.94712 454.49447999999995 94.73875 454.44685 C 98.89527 454.37262 100.24763 454.41352 102.208 454.66166 C 106.38759999999999 455.19685 109.21281 456.11113 112.20812 457.90056 C 114.10512999999999 459.03368 115.96336 460.82678 116.21551 461.76801 C 116.72864 463.67913 115.97801 465.77099 114.47297999999999 466.6153 C 113.86225999999999 466.95963 113.53626 466.99814 111.50431999999999 466.98409 C 110.25008 466.97522 108.62384999999999 466.85859999999997 107.89210999999999 466.72718 z M 351.87599 466.80215 C 350.32482 466.18658999999997 349.35020000000003 464.03323 349.75044 462.10892 C 350.01572000000004 460.83287 350.93402000000003 459.83439 353.23621 458.31175 C 355.2545 456.9787 356.81583 456.26196000000004 359.24794 455.55795 C 362.55126 454.60203 363.70241000000004 454.4907 370.3666 454.49095 C 374.55148 454.49095 376.58712 454.55218 376.71768000000003 454.6827 C 376.85687 454.82189 376.38204 455.38245 375.03555000000006 456.68124 C 368.95437000000004 462.53864 363.47335000000004 465.77343 358.01795000000004 466.72417 C 356.27087000000006 467.02768000000003 352.56590000000006 467.07396 351.87598 466.79920000000004 z M 118.62065 463.11562 C 118.0483 462.86908 116.25807 460.99143999999995 115.3019 459.63851 C 113.63431 457.28027 112.48741 454.50305 111.80156000000001 451.16681 C 111.26514 448.55785 110.80514000000001 443.4869 111.09299000000001 443.30993 C 111.33541000000001 443.16048 116.90915000000001 448.79031000000003 118.03610000000002 450.32301 C 120.11002000000002 453.14665 121.21972000000002 455.51017 121.80996000000002 458.35641 C 122.31832000000001 460.82135 122.13118000000001 461.75797 120.94338000000002 462.66247999999996 C 120.28714000000002 463.16140999999993 119.21533000000002 463.37136 118.62653000000002 463.11853999999994 z M 345.49717 462.88579 C 344.27207 462.24818999999997 343.97353 461.71159 344.00203999999997 460.19772 C 344.07647 456.38491 346.29056999999995 451.94897000000003 350.284 447.61956 C 351.91087 445.85382999999996 354.87007 443.14605 355.01428 443.29024999999996 C 355.14993999999996 443.42600999999996 354.73849 448.30877 354.45069 449.93086999999997 C 353.6267 454.60019 352.19943 457.93278999999995 349.74383 460.90957999999995 C 347.86554 463.18754999999993 346.91953 463.6263799999999 345.49425 462.88577999999995 z M 149.02666 455.52843 C 139.67487 448.20262 129.95755 438.59402 121.67196999999999 428.48636 C 117.87392999999999 423.85375999999997 109.66717999999999 412.73519 109.66717999999999 412.22292 C 109.66717999999999 412.03177 111.14450999999998 410.92823999999996 111.40086 410.92823999999996 C 111.49369999999999 410.92823999999996 111.872 411.38876999999997 112.24445 411.9487 C 113.48816 413.82280999999995 117.95785000000001 419.94046 120.07841 422.66657999999995 C 125.02736 429.02752999999996 129.38039 434.00446999999997 134.85563000000002 439.55900999999994 C 140.28061000000002 445.06301999999994 144.09701 448.52108999999996 149.72176000000002 453.03196999999994 C 151.30672 454.3039999999999 152.60590000000002 455.39892999999995 152.60590000000002 455.46448999999996 C 152.60590000000002 455.58635 151.3573 457.23992999999996 151.26415000000003 457.23992999999996 C 151.23603000000003 457.23992999999996 150.22916000000004 456.4702 149.02666000000002 455.52550999999994 z M 314.02838 456.38206 C 313.66525 455.90672 313.37056 455.47748 313.37056 455.42655 C 313.37056 455.37559000000005 314.02825 454.82581000000005 314.83404 454.20538000000005 C 328.13337 443.93960000000004 341.62958000000003 429.4363000000001 352.58484 413.63537 C 353.60987 412.15790000000004 354.51385 410.94569 354.59335999999996 410.93801 C 354.70474999999993 410.93308 355.98231 411.72587000000004 356.46236999999996 412.09914000000003 C 356.64385 412.23933000000005 349.51453 422.00634 346.11316999999997 426.2755 C 338.68458999999996 435.60481000000004 330.84756999999996 443.81156000000004 322.58971999999994 450.91727000000003 C 320.54392999999993 452.6782 315.05470999999994 457.11056 314.81603999999993 457.19843000000003 C 314.7458499999999 457.2221 314.3914899999999 456.85741 314.0283799999999 456.38207000000006 z M 58.94499 448.71104 C 43.29703 444.82944000000003 30.388409999999997 441.61358 30.257849999999998 441.56273000000004 C 30.061829999999997 441.48780000000005 30.06674 441.29272000000003 30.28982 440.43991000000005 C 30.438399999999998 439.87189000000006 30.587799999999998 439.37799000000007 30.621489999999998 439.34400000000005 C 30.710119999999996 439.25164000000007 87.71515 453.36186000000004 87.8935 453.51996 C 88.01503000000001 453.62692000000004 87.61932 455.59308000000004 87.45069000000001 455.72416000000004 C 87.41860000000001 455.74783 74.59294000000001 452.59263000000004 58.94498000000001 448.71104 z M 378.32258 455.13099 C 378.22972000000004 454.78063 378.13113000000004 454.26413 378.0996 453.98517 L 378.04441 453.48118 L 406.52549000000005 446.40758 C 422.18832000000003 442.51681 435.10107000000005 439.33275 435.22114000000005 439.32833 C 435.41299000000004 439.3234 435.55245 439.68737 435.89205000000004 441.09503 L 435.99911000000003 441.5383 L 413.14594000000005 447.2045 C 400.57728000000003 450.3215 387.63701000000003 453.52317 384.39302000000004 454.3203 L 378.49327000000005 455.76989999999995 z M 87.39449 452.19282 C 83.14837 451.41893 79.11410000000001 449.64369999999997 74.44023 446.48976 C 72.05894 444.88259 71.77944 444.67190999999997 71.89572 444.55562 C 72.04543 444.40596999999997 76.96566 443.61911999999995 79.03986 443.41418999999996 C 85.61565 442.76601999999997 90.95095 443.77837999999997 95.17694 446.48110999999994 C 96.78921 447.5114899999999 97.31122 449.15536999999995 96.53711 450.75471999999996 C 96.09906 451.65908999999994 95.49361 452.02286999999995 94.03853 452.26005999999995 C 92.5105 452.50729999999993 88.93524 452.46984 87.39743 452.1898699999999 z M 103.2561 451.93215 C 102.19767 451.22371 99.81694 448.74084 98.89844000000001 447.38827 C 96.38642 443.68751 94.77428 438.40833999999995 94.29888000000001 432.32633999999996 L 94.17379000000001 430.74201999999997 L 95.83726000000001 432.01879999999994 C 100.44190000000002 435.55510999999996 103.85257000000001 439.1672699999999 105.70653000000001 442.47574999999995 C 106.59140000000002 444.05501999999996 107.48685000000002 446.67825999999997 107.73874000000002 448.42193 C 107.93930000000002 449.81077 107.92978000000002 449.96371999999997 107.59808000000002 450.60740999999996 C 107.10419000000003 451.56287 106.00357000000002 452.30753 104.93277000000002 452.40545999999995 C 104.20046000000002 452.47141999999997 103.95951000000002 452.40545999999995 103.25902000000002 451.93508999999995 z M 360.21877 452.26343 C 359.35264 451.89965 358.64353 451.20148 358.34626000000003 450.42775 C 358.08139000000006 449.73777 358.07177 449.48165 358.26317 448.33995 C 358.75188 445.43719999999996 360.07171 442.47775 362.05207 439.85345 C 363.48328000000004 437.95301 366.95511 434.55097 369.61508000000003 432.44343000000003 L 371.65597 430.82555 L 371.71207000000004 431.5658 C 371.79989000000006 432.69823 371.25028000000003 436.60761 370.67229000000003 438.97516 C 369.31201000000004 444.54342 366.93023000000005 448.56065 363.15136 451.65553 C 362.50755000000004 452.18284 362.14517 452.3447 361.49188000000004 452.39156 C 361.03103000000004 452.42439 360.45769 452.36890000000005 360.21584 452.26637000000005 z M 371.74749 452.2498 C 370.53998 452.05361999999997 370.00066000000004 451.67737999999997 369.47321000000005 450.66545 C 368.98441 449.72954000000004 369.03530000000006 448.51302000000004 369.5993 447.59976 C 370.36851 446.35509 374.37998000000005 444.44066 377.78155000000004 443.69849 C 379.18495 443.391 380.08837000000005 443.32986 383.19246000000004 443.3258 C 386.87005000000005 443.32187 389.64629 443.60473 393.30542 444.35130000000004 L 394.36871 444.56975000000006 L 392.50503000000003 445.86492000000004 C 387.43088000000006 449.38869000000005 382.93792 451.43814000000003 378.67834000000005 452.16540000000003 C 376.8751500000001 452.47311 373.37541000000004 452.51545000000004 371.74453000000005 452.24979 z M 120.97336 448.95141 C 111.16356 433.76384 101.21077 416.00862 92.88244 398.82773000000003 C 90.21761000000001 393.33373000000006 86.03768000000001 384.3589 85.81735 383.65546 C 85.71444000000001 383.32884 85.80335000000001 383.2085 86.36765 382.92393 C 87.80362 382.19762 87.68105 382.1128 88.81888 384.61978 C 99.27147 407.62176 111.90435 430.85745 123.89495 449.14261 C 124.46292 450.00858 124.92523 450.77337 124.92523 450.84377 C 124.92523 450.91416 124.74426 451.06242000000003 124.52503 451.16985 C 124.3058 451.27731 123.87341 451.53309 123.56905 451.73755 L 123.01034 452.10637 z M 341.96513 451.46039 L 341.02765999999997 450.8272 L 341.34024999999997 450.35193 C 353.14374999999995 432.44755999999995 365.97322999999994 409.09672 375.84754 387.55296999999996 C 377.15639 384.70039999999995 378.27549 382.36245999999994 378.33637999999996 382.36211 C 378.39730999999995 382.36145 378.89066999999994 382.56262999999996 379.43120999999996 382.80978 L 380.41427999999996 383.26101 L 379.43152 385.42809 C 371.0257 403.97938 362.09114999999997 421.0364 352.08216 437.63401 C 348.94067 442.84445 343.51174 451.46909999999997 343.11688 451.87102999999996 C 342.94838999999996 452.04425 342.70709999999997 451.95966 341.96511999999996 451.46020999999996 z M 42.4577 430.97171 C 27.59774 423.56696999999997 15.443050000000003 417.46718 15.443050000000003 417.41628999999995 C 15.443050000000003 417.17367999999993 16.421910000000004 415.36621999999994 16.533010000000004 415.40765999999996 C 16.602670000000003 415.43132999999995 28.836080000000003 421.51311 43.72326 428.92168999999996 L 70.78472000000001 442.38917 L 70.26197 443.42805999999996 C 69.97328 444.00046999999995 69.67932 444.45841999999993 69.60872 444.44930999999997 C 69.53812 444.44043999999997 57.320600000000006 438.37645 42.463570000000004 430.97173 z M 395.79636 443.58535 C 395.54992 443.10068 395.34927999999996 442.62074 395.34927999999996 442.51848 C 395.34927999999996 442.35563 449.46999999999997 415.29525 449.56759 415.41071 C 449.67071 415.53227 450.53634 417.3213 450.53634 417.41465 C 450.53634 417.50840999999997 396.50819 444.46632 396.31755 444.46632 C 396.27615 444.46632 396.04283999999996 444.07003 395.79636 443.58536 z M 87.925 440.92708 C 87.42621 440.72596 85.35182 438.49016 84.50854 437.24968 C 82.85871 434.81756 81.57821 431.60623000000004 80.93849 428.27933 C 80.33803 425.17503 80.05253 420.35808000000003 80.32799 418.05932 L 80.44047 417.11341 L 81.9358 418.59096 C 85.97604 422.58551 89.16384 426.88105 90.5669 430.21721 C 91.75077 433.03158 92.49062 437.19882 92.07201 438.71787 C 91.63842000000001 440.29753 89.36071000000001 441.50966 87.92500000000001 440.92709 z M 375.7131 440.66569 C 375.12618 440.39144 374.63263 439.99548 374.33821 439.56138 C 373.92856 438.95997 373.87724000000003 438.71286 373.88222 437.37128 C 373.90095 432.72567000000004 375.75063 428.35905 379.86025 423.25578 C 381.66818 421.00984 385.39549 417.10905 385.60603000000003 417.23973 C 385.82508 417.37498 385.80655 422.27262 385.57793000000004 424.77027 C 385.11258000000004 429.83131 383.53648000000004 434.53301999999996 381.29126 437.53918 C 378.65439000000003 441.07149 377.71677 441.59797 375.71314 440.66568 z M 73.57227 439.923 C 68.3675 438.98225 62.728100000000005 435.65869 57.25698 430.30466 L 55.686209999999996 428.76699 L 56.282289999999996 428.62227 C 56.608959999999996 428.54281000000003 58.83524 428.46325 61.226 428.44492 C 67.13544999999999 428.40212 70.30428 428.91577 74.02264 430.52742 C 76.74840999999999 431.70695 79.84250999999999 434.0505 80.42979 435.3786 C 81.12384999999999 436.94517 80.56457 439.2143 79.32012 439.88406000000003 C 78.56127000000001 440.28981000000005 75.70926 440.31215000000003 73.57519 439.92596000000003 z M 386.91986 440.0507 C 385.97325 439.62631 385.23339000000004 438.23775 385.23339000000004 436.88100000000003 C 385.23339000000004 435.53896000000003 385.80251000000004 434.63554000000005 387.52656 433.25058 C 391.99511 429.65741 398.04439 428.08235 406.17111 428.39858000000004 C 407.87753 428.46414000000004 409.54989 428.57603000000006 409.88518 428.64623000000006 L 410.49505 428.7759500000001 L 408.20164 430.87761000000006 C 401.27229 437.22442000000007 395.81949 439.9504800000001 389.66963 440.14097000000004 C 388.35132 440.18247 387.11539 440.14182000000005 386.91987 440.05658000000005 z M 96.18247 415.05623 C 89.5093 401.90562 82.663 388.41479000000004 80.96682999999999 385.07758 L 77.88235999999999 379.00939 L 78.95472 378.46837 L 80.02708 377.92734 L 81.69556 381.25515 C 82.61352 383.08631 89.44079 396.55377 96.86858 411.18216 C 104.29637 425.81056 110.37312 437.83257000000003 110.37312 437.89382 C 110.37312 437.98668 108.53673 438.96961 108.36431 438.96961 C 108.33659 438.96961 102.85565 428.20975 96.18248 415.05914 z M 356.6113 438.41005 L 355.58128000000005 437.88406000000003 L 358.48487000000006 432.17036 C 360.08287000000007 429.0287 366.9285100000001 415.54305 373.6990400000001 402.20550000000003 L 386.0066900000001 377.95437000000004 L 387.0406800000001 378.47614000000004 C 387.6090800000001 378.76428000000004 388.07467000000014 379.02584 388.07467000000014 379.05901000000006 C 388.07467000000014 379.1613300000001 357.86808000000013 438.6895200000001 357.75152000000014 438.8186400000001 C 357.69149000000016 438.8837000000001 357.17911000000015 438.7014200000001 356.6142100000001 438.41258000000005 z M 225.21228 435.43313 C 222.69101999999998 435.33131000000003 221.92284999999998 435.24661000000003 221.80043999999998 435.05047 C 221.71195999999998 434.91078000000005 221.63778999999997 433.34047000000004 221.63724 431.56069 C 221.63332 428.34987 221.63221 428.32607 221.23603 428.24282 C 220.83459 428.15913 213.34625 427.60447 212.66119 427.60849 C 212.32575 427.60915 212.22833 427.91117 211.59874 430.91318 C 211.14709 433.06168 210.81983 434.25014 210.65755 434.31115 C 210.07483 434.53483 198.96580999999998 432.98797 192.71213 431.81316 C 189.91108 431.28654 189.60922 431.19417 189.64152 430.88165999999995 C 190.00516000000002 427.29407 190.26118000000002 424.20905999999997 190.20018000000002 424.14805999999993 C 190.15776000000002 424.10565999999994 188.13665000000003 423.66257999999993 185.71306 423.16086999999993 C 182.5772 422.51690999999994 181.26822 422.3122399999999 181.18275 422.4530899999999 C 181.11348999999998 422.5643799999999 180.58689 424.0057099999999 180.01285 425.66000999999994 C 179.41214 427.38439999999997 178.8715 428.6664999999999 178.74528999999998 428.6664999999999 C 178.42356999999998 428.6664999999999 175.04609 427.73993999999993 170.97695 426.5370199999999 C 167.82594999999998 425.60488999999995 159.00941 422.70156999999995 158.85118999999997 422.5433499999999 C 158.81826999999998 422.5104199999999 159.15810999999997 421.1224199999999 159.60573999999997 419.4624799999999 C 160.05336999999997 417.79959999999994 160.42078999999998 416.3363499999999 160.42060999999998 416.2101599999999 C 160.42028 416.0043099999999 151.95721999999998 412.57073999999994 151.82717999999997 412.7247899999999 C 151.79928999999996 412.7576199999999 151.12763999999996 413.98292999999995 150.33166999999997 415.44641999999993 C 149.53864 416.90989999999994 148.82142999999996 418.21027999999995 148.73852999999997 418.3361499999999 C 148.62631999999996 418.5123999999999 147.82009999999997 418.2249599999999 145.32284999999996 417.1289599999999 C 140.50042999999997 415.0089499999999 129.86042999999995 409.6826099999999 129.95925999999997 409.4399699999999 C 130.00580999999997 409.3278799999999 130.62109999999998 407.8556799999999 131.32851999999997 406.1690399999999 C 132.03300999999996 404.4824099999999 132.58160999999996 403.0749699999999 132.54405999999997 403.04172999999986 C 132.31542999999996 402.83607999999987 124.62613999999998 398.6796899999999 124.48309999999998 398.68516999999986 C 124.38938999999998 398.69009999999986 123.47713999999998 399.8551699999999 122.46042999999997 401.2761199999999 C 121.44371999999997 402.6970699999999 120.51668999999997 403.89481999999987 120.40100999999997 403.9374699999999 C 120.16878999999997 404.0259999999999 116.79403999999997 401.9477599999999 112.33420999999997 398.9706599999999 C 109.25852999999996 396.9195599999999 102.81852999999997 392.3588899999999 102.68265999999997 392.1387899999999 C 102.63991999999998 392.06839999999994 103.27476999999998 390.8379099999999 104.09863999999997 389.4034799999999 C 104.91957999999997 387.97197999999986 105.59418999999997 386.7333299999999 105.59418999999997 386.6541599999999 C 105.59418999999997 386.5140699999999 99.30365999999997 380.8936899999999 99.03273999999998 380.7911499999999 C 98.92028999999998 380.7488499999999 97.15892999999997 382.2678099999999 94.37782999999997 384.8036399999999 L 93.89761999999997 385.24191999999994 L 91.89389999999997 383.5500399999999 C 87.60185999999997 379.9245299999999 78.09073999999997 371.0385599999999 78.09073999999997 370.65568999999994 C 78.09073999999997 370.59092999999996 79.12949999999996 369.4352799999999 80.39745999999997 368.08779999999996 C 81.66541999999997 366.74030999999997 82.70417999999997 365.57995999999997 82.70417999999997 365.51019999999994 C 82.70417999999997 365.34674999999993 76.93437999999996 359.6390999999999 76.76730999999997 359.6390999999999 C 76.69759999999997 359.6390999999999 75.53276999999997 360.55720999999994 74.18042999999997 361.67999999999995 C 72.82515999999997 362.80278999999996 71.64094999999998 363.7209 71.54722999999997 363.7209 C 71.45350999999997 363.7209 71.15064999999997 363.45532 70.87549999999997 363.12978999999996 C 70.60035999999998 362.80424999999997 69.15084999999998 361.12067999999994 67.65469999999998 359.38331999999997 C 64.61564999999997 355.85612 61.62494999999998 352.15126999999995 58.842059999999975 348.45941 L 56.98186999999997 345.98967999999996 L 59.90873999999997 343.74404 C 61.52027999999997 342.50924 62.835609999999974 341.46101999999996 62.835609999999974 341.41465 C 62.835609999999974 341.30769 58.437199999999976 335.34689 58.044979999999974 334.91886 C 57.76463999999997 334.61208 57.611309999999975 334.68068 54.680639999999975 336.38234 C 52.993319999999976 337.36481 51.58698999999998 338.16678 51.55869999999997 338.16678 C 51.29322999999997 338.16678 44.52685999999997 327.0573 41.89829999999998 322.30453 C 40.337269999999975 319.4845 40.25850999999998 319.29394 40.566319999999976 319.06961 C 40.74744999999998 318.93869 42.19696999999998 318.17034 43.78713999999998 317.36416 C 45.38024999999998 316.55797 46.68160999999998 315.83646000000005 46.68491999999998 315.76503 C 46.68914999999998 315.50892000000005 42.60308999999998 307.47053000000005 42.47208999999998 307.47471 C 42.39817999999998 307.47543 40.91115999999998 308.15438 39.16431999999998 308.97933 C 37.41748999999998 309.80427000000003 35.930889999999984 310.44292 35.86043999999998 310.40018 C 35.63657999999998 310.26088999999996 32.337169999999986 302.77216999999996 30.622539999999983 298.51239999999996 C 22.813139999999983 279.10490999999996 17.918689999999984 258.90250999999995 15.999259999999984 238.18318999999997 C 15.281039999999983 230.41534999999996 15.188909999999984 228.09024999999997 15.197079999999984 217.51128999999997 C 15.202409999999984 206.39707999999996 15.350509999999984 203.27465999999998 16.269059999999982 194.62127999999998 C 22.107349999999983 139.68932999999998 48.660499999999985 89.19285999999998 90.87069999999999 52.75384 C 122.21443999999998 25.693469999999998 160.96156 7.984999999999999 201.50770999999997 2.187509999999996 C 213.65657 0.44960999999999607 222.84603999999996 -0.13276000000000376 235.66550999999998 0.02463999999999622 C 243.74150999999998 0.12257999999999622 248.03826999999998 0.3504599999999962 255.00536 1.0457799999999962 C 288.45914 4.391829999999996 320.9213 15.692169999999997 349.65936999999997 33.99267 C 370.58732 47.320359999999994 389.63291999999996 64.69856 405.02986999999996 84.51848 C 417.41556999999995 100.46039999999999 427.79416 118.59737 435.29193999999995 137.39612 C 447.75782 168.65521 452.72882999999996 202.18018999999998 449.91465999999997 236.05230999999998 C 448.07780999999994 258.18334 442.85519999999997 279.74989 434.34515 300.37456999999995 C 432.95628999999997 303.73965999999996 429.98292 310.43645999999995 429.62897 310.99550999999997 C 429.50791 311.18645999999995 428.77693999999997 310.90779 426.16623999999996 309.68073 C 424.19942999999995 308.75397 422.79281 308.1893 422.70314999999994 308.28668 C 422.51199999999994 308.4876 418.7885299999999 316.31667 418.7885299999999 316.51711 C 418.7885299999999 316.59667 420.22781999999995 317.39341 421.9849999999999 318.28762 L 425.1814799999999 319.9132 L 424.75290999999993 320.6585 C 424.51602999999994 321.06843 423.74673999999993 322.44258 423.04238999999995 323.71054 C 421.18384 327.05127999999996 417.66948999999994 332.8623 415.55850999999996 336.07914 L 413.73117999999994 338.86641 L 411.4248799999999 337.52876999999995 C 410.15714999999994 336.79263 408.7869399999999 335.99639999999994 408.37803999999994 335.76228999999995 L 407.63751999999994 335.33343999999994 L 405.13947999999993 338.69732999999997 C 403.76496999999995 340.54717999999997 402.64582999999993 342.12282999999996 402.65054999999995 342.20138 C 402.65547999999995 342.27993999999995 403.50807999999995 342.98010999999997 404.54668999999996 343.76219999999995 C 405.58529999999996 344.54428999999993 406.85319 345.50548999999995 407.36585999999994 345.90178999999995 L 408.29797999999994 346.6236799999999 L 406.4191399999999 349.0975199999999 C 403.0358099999999 353.5476099999999 399.5083599999999 357.83084999999994 395.2999499999999 362.60313999999994 L 393.7061999999999 364.4109399999999 L 393.07303999999993 363.90829999999994 C 392.72421999999995 363.63300999999996 391.60488999999995 362.72011999999995 390.5807699999999 361.88127999999995 L 388.7216399999999 360.3569299999999 L 387.9196199999999 361.10682999999995 C 387.4773199999999 361.5176599999999 386.1025399999999 362.84971999999993 384.8632399999999 364.06531999999993 L 382.6118099999999 366.27392999999995 L 384.9414399999999 368.73891999999995 L 387.27105999999986 371.2039199999999 L 384.35449999999986 373.9991099999999 C 380.6024199999999 377.5963299999999 377.81239999999985 380.1360499999999 374.6063599999999 382.87740999999994 C 373.1902899999999 384.08876999999995 371.85737999999986 385.2353299999999 371.6430299999999 385.42627999999996 L 371.2522399999999 385.77187 L 368.8531299999999 383.60877 L 366.4540199999999 381.44568 L 363.0989599999999 384.40952999999996 L 359.74389999999994 387.37337999999994 L 361.1410399999999 389.8103899999999 C 361.9094799999999 391.1517599999999 362.53818999999993 392.3260399999999 362.53818999999993 392.4198999999999 C 362.53818999999993 392.91423999999995 345.55292999999995 404.36313999999993 344.8202799999999 404.36313999999993 C 344.7227899999999 404.36313999999993 343.83278999999993 403.2449199999999 342.8438999999999 401.8791999999999 C 341.8520699999999 400.5134699999999 340.9985999999999 399.3952599999999 340.9433899999999 399.3952599999999 C 340.7018799999999 399.3952599999999 333.0404299999999 403.7340799999999 332.9746599999999 403.9069799999999 C 332.9330599999999 404.0140399999999 333.42142999999993 405.32794999999993 334.05601999999993 406.8247999999999 C 334.69060999999994 408.32456999999994 335.2119399999999 409.6438099999999 335.2119399999999 409.7567399999999 C 335.2119399999999 409.97174999999993 327.2197599999999 414.0438099999999 323.3238999999999 415.8106699999999 C 320.3597199999999 417.1569599999999 316.7166299999999 418.7321799999999 316.57195999999993 418.7321799999999 C 316.5070999999999 418.7321799999999 315.88749999999993 417.6742899999999 315.19683999999995 416.3796899999999 C 314.50325 415.0880199999999 313.83534999999995 413.89604999999995 313.70611999999994 413.7334699999999 C 313.49623999999994 413.4671899999999 313.09166999999997 413.5891499999999 309.24174999999997 415.0986299999999 C 306.91234999999995 416.0115999999999 304.98794999999996 416.7813099999999 304.96466 416.8129999999999 C 304.94099 416.84179999999986 305.27617 418.1734899999999 305.70572 419.76781999999986 C 306.13527 421.3621499999999 306.46473 422.69378999999986 306.43264 422.72244999999987 C 306.27392 422.8757399999999 296.87985 425.92868999999985 293.95382 426.78058999999985 C 289.5124 428.07162999999986 286.39991000000003 428.8917099999999 286.30284 428.79756999999984 C 286.26074 428.75546999999983 285.77577 427.4267399999998 285.22555 425.84299999999985 C 284.43853 423.58333999999985 284.16332 422.98155999999983 283.94373 423.0380499999998 C 283.78964 423.0793499999998 281.76709 423.50017999999983 279.44747 423.9790499999998 L 275.23422 424.8459899999998 L 275.23422 425.4046799999998 C 275.23422 425.71196999999984 275.35921 427.13888999999983 275.50912 428.5785699999998 C 275.65897 430.01823999999976 275.75586 431.2247999999998 275.7196 431.2581799999998 C 275.62171 431.3560699999998 269.26513 432.4976299999998 266.00733 433.0014099999998 C 263.57051 433.3787999999998 260.55066000000005 433.7788899999998 255.23339 434.4234499999998 C 254.36182000000002 434.5302099999998 254.47808 434.79156999999975 253.66809 430.8860499999998 C 253.40655 429.61808999999977 253.13273 428.51821999999976 253.06293 428.4402999999998 C 252.95194 428.31994999999984 247.50885 428.6543099999998 244.75800999999998 428.9480499999998 L 243.82617 429.0465399999998 L 243.82544 431.4741099999998 C 243.82478999999998 432.8076599999998 243.77464999999998 434.1911599999998 243.71768999999998 434.5456399999998 C 243.62363999999997 435.1233199999998 243.54146999999998 435.2025199999998 242.96671999999998 435.2961799999998 C 241.9089 435.4687999999998 228.73952999999997 435.56568999999985 225.22691999999998 435.4257999999998 z M 241.5048 418.91523 C 246.24420999999998 418.69648 251.46309 418.29617 255.52235 417.84297000000004 C 293.80957 413.55075000000005 329.82623 398.49492000000004 359.95362 374.19161 C 382.76421 355.78938000000005 401.47436 332.39158000000003 414.31804 306.20704 C 419.98424 294.65868 423.77777 284.91108 427.19809 273.12457 C 431.1868 259.37751000000003 433.56302 245.87695 434.74789999999996 230.21054 C 435.05105 226.20329 435.16333999999995 211.94861 434.92977999999994 207.23192 C 432.58640999999994 160.08517 414.78439999999995 116.75221 383.27426999999994 81.50970000000001 C 380.1150799999999 77.97713 371.44214999999997 69.30969 368.0171399999999 66.26584000000001 C 334.4752699999999 36.44223000000001 294.39370999999994 19.14731000000001 249.39672999999993 15.077030000000015 C 238.41783999999993 14.084360000000014 225.89159999999993 14.051810000000014 214.79588999999993 14.988090000000016 C 174.27707999999993 18.404190000000014 135.90128999999993 34.214520000000014 104.15887999999993 60.563060000000014 C 97.87308999999992 65.78165000000001 89.19047999999992 74.05325000000002 83.85920999999993 79.89820000000002 C 68.05276999999994 97.23300000000002 55.64322999999993 116.45219000000002 46.67165999999993 137.50058 C 31.470819999999932 173.15428000000003 26.866539999999933 212.75985000000003 33.45550999999993 251.18212 C 38.600439999999935 281.18856 50.54320999999993 309.73093 68.35425999999993 334.59499 C 92.94044999999993 368.91615 128.05742999999993 394.98398 167.77536999999992 408.39801 C 186.59666999999993 414.75447 204.76244999999992 418.09164 225.35482999999994 418.9769 C 228.43519999999992 419.10812 238.10890999999992 419.07429 241.50188999999995 418.91657 z M 222.85475 406.31844 C 200.14624 396.94204 166.9536 385.31065 128.91843 373.40018000000003 C 127.45494000000001 372.94286000000005 126.18359 372.50004 126.09515 372.41646000000003 C 126.00168000000001 372.32793000000004 126.36099 371.25093000000004 126.96247000000001 369.81663000000003 C 129.5729 363.60073000000006 135.44381 349.77828000000005 142.09263 334.18656000000004 C 146.08656000000002 324.81906000000004 150.53641000000002 314.34851000000003 151.98056000000003 310.91968 L 154.60441000000003 304.68881000000005 L 159.59495000000004 304.57219000000003 C 162.33960000000005 304.50733 167.18092000000004 304.36241 170.35084000000003 304.24994000000004 C 178.04878000000002 303.97471 191.86655000000002 303.97925000000004 195.37036000000003 304.25881000000004 C 206.07382000000004 305.11177000000004 213.49825000000004 306.84587000000005 220.12406000000004 310.04200000000003 C 224.67142000000004 312.23309 227.54793000000004 314.21358000000004 231.05147000000005 317.55892000000006 L 232.92922000000004 319.35251000000005 L 234.33581000000004 317.93053000000003 C 237.47723000000005 314.74797 240.91575000000003 312.30122000000006 245.14171000000005 310.23755000000006 C 255.34698000000006 305.2558700000001 267.39702000000005 303.52222000000006 287.92114000000004 304.08155000000005 C 292.20853000000005 304.19817000000006 299.15128000000004 304.3802400000001 303.34622 304.4870700000001 C 307.54409000000004 304.59393000000006 311.02615000000003 304.7333100000001 311.08708 304.7950200000001 C 311.14801 304.85958000000005 312.55963 308.1451200000001 314.22306000000003 312.0971100000001 C 317.30377000000004 319.4189200000001 319.65235 324.9452000000001 328.35239 345.3414500000001 C 334.93187 360.76541000000014 339.61498 371.8711000000001 339.672 372.1924100000001 C 339.70906 372.3927200000001 337.68694000000005 373.1016700000001 331.1763 375.1752400000001 C 291.77179 387.72057000000007 266.45342000000005 396.6487300000001 242.52425000000002 406.4338800000001 L 237.59819000000002 408.4475600000001 L 232.76571 408.43276000000014 L 227.93323 408.41796000000016 L 222.85769000000002 406.32118000000014 z M 228.37332 362.37247 L 228.37332 321.26644000000005 L 227.53008 320.47976000000006 C 222.80528999999999 316.07987 216.49921 312.83187000000004 209.02497 310.95051000000007 C 200.62259 308.8388100000001 190.80445 308.20126000000005 174.87565999999998 308.73728000000006 C 171.75315999999998 308.8437400000001 166.60832 308.98039000000006 163.44070999999997 309.04561000000007 L 157.68541999999997 309.16283000000004 L 154.34403999999998 317.05767000000003 C 152.50731 321.40072000000004 148.09069999999997 331.77952000000005 144.53425 340.1249 C 136.07094999999998 359.97648000000004 132.04485 369.48278000000005 132.08326 369.52121 C 132.10169 369.53994 133.39263 369.68426 134.95338999999998 369.84302 C 152.60976 371.64602 170.89612999999997 376.01216000000005 187.47548999999998 382.37942000000004 C 200.65413999999998 387.44434 215.73824 395.18592 226.63873999999998 402.48685000000006 C 227.44518 403.0272800000001 228.16690999999997 403.46972000000005 228.24129 403.46972000000005 C 228.31566999999998 403.46972000000005 228.37625 384.97331 228.37625 362.36370000000005 z M 239.40787 402.26871 C 246.22515 397.76321 254.52508 393.05606 262.13053 389.37951 C 284.19171 378.71693 306.89463 372.30084 331.55453 369.76454 C 332.62641 369.65325 333.53018 369.53673000000003 333.5626 369.5043 C 333.63189 369.43501 330.89784 362.96617 321.08716 339.95461 C 314.08743 323.53765 308.90049 311.30946 308.32266999999996 309.86127 L 308.0334 309.13453 L 301.87674999999996 309.02284 C 298.48927999999995 308.96200999999996 293.04520999999994 308.81849 289.77460999999994 308.70662 C 283.44145999999995 308.48837 273.8474999999999 308.58123 269.9001799999999 308.89777 C 258.2554099999999 309.82959999999997 249.6800599999999 312.32291999999995 243.0257799999999 316.71214999999995 C 241.0313299999999 318.02672999999993 239.5256899999999 319.19677999999993 238.2720799999999 320.40737999999993 L 237.4288399999999 321.21892999999994 L 237.4288399999999 362.34802999999994 C 237.4288399999999 384.96817999999996 237.4621899999999 403.47714999999994 237.5042599999999 403.47714999999994 C 237.5463199999999 403.47714999999994 238.4041099999999 402.9322599999999 239.4107799999999 402.26627999999994 z M 54.65734 294.6193 L 54.65734 292.5784 L 232.89817 292.5784 L 411.139 292.5784 L 411.139 294.6193 L 411.139 296.66020000000003 L 232.89817000000002 296.66020000000003 L 54.65734000000003 296.66020000000003 z M 97.59899 274.68272 L 97.59899 263.8849 L 99.17371 263.67029 C 105.66594 262.78415 110.77629 258.04153 111.34497 252.37456000000003 C 111.40165 251.79695000000004 111.6098 232.76042000000004 111.8017 210.07051000000004 C 112.01624 184.85059000000004 112.22579999999999 168.16187000000005 112.34149 167.12995000000004 C 113.33847999999999 158.14930000000004 118.19951999999999 151.70936000000003 127.14627999999999 147.52115000000003 C 128.21872 147.01821000000004 129.29867 146.51379000000003 129.54161 146.39729000000003 C 129.89032999999998 146.23023000000003 127.32866999999999 146.19651000000002 117.74216999999999 146.23383000000004 L 105.49969999999999 146.28085000000004 L 105.49969999999999 138.20878000000005 L 105.49969999999999 130.13671000000005 L 138.0168 130.09076000000005 L 170.5339 130.04481000000004 L 170.5339 138.09331000000003 L 170.5339 146.14181000000002 L 169.20154 146.26279000000002 C 166.27479 146.52828000000002 163.24676 147.68333 161.34091 149.25935 C 159.58431000000002 150.71325000000002 158.21892 152.91298 157.53406 155.39207000000002 C 157.16551 156.72935 157.15703000000002 157.07956000000001 157.03545 180.16987 C 156.96618 193.0509 156.89607999999998 214.65007 156.87774 228.16798 C 156.84129 254.72594 156.80307 253.47259 157.74929999999998 255.61196999999999 C 159.58558999999997 259.76407 164.47299999999998 263.15127 169.48851999999997 263.74845999999997 L 170.48990999999995 263.86890999999997 L 170.56522999999996 274.54089 C 170.60723999999996 280.41195 170.61172999999997 285.2732 170.57459999999995 285.34725 C 170.53742999999994 285.42127999999997 154.10204999999996 285.48159999999996 134.05382999999995 285.48159999999996 L 97.59904999999995 285.48159999999996 z M 137.82033 263.02304 C 140.42951000000002 262.48312 142.50765 261.34929 144.17175 259.55069 C 145.39722 258.22724 146.07727 257.06759999999997 146.70681 255.23011999999997 L 147.19206 253.80946999999998 L 147.24335 210.7797 C 147.27648 182.28861 147.23378 167.17132999999998 147.1129 166.03839 C 146.86133 163.67041999999998 146.21767 161.74698999999998 145.12726 160.1163 C 141.15732 154.18321 132.09251 153.33567 126.81391 158.40619 C 125.11379000000001 160.03782 123.96709000000001 162.09279 123.29163000000001 164.71173000000002 C 122.92414000000001 166.13311000000002 122.91875000000002 166.53832000000003 122.76581000000002 196.75923 C 122.68174000000002 213.59227 122.63140000000001 233.31693 122.65817000000001 240.58695 L 122.70419000000001 253.80703 L 123.20664000000001 255.22412 C 123.85964000000001 257.07442 124.70332 258.43976 125.97498 259.70254 C 128.91475 262.62362 133.51086 263.91055 137.82034 263.0206 z M 179.16324 285.3629 C 179.01362 285.21325 179.01349 279.65466000000004 179.16258 270.79493 L 179.27939999999998 263.85635 L 180.44885 263.74436000000003 C 185.72842 263.23703 190.1188 260.38514000000004 192.19647999999998 256.11582000000004 C 193.49147 253.45469000000003 193.38456 257.25742 193.61817999999997 205.31160000000006 C 193.84631999999996 154.88190000000006 193.87380999999996 156.88038000000006 192.93760999999998 154.28423000000006 C 191.29724 149.73110000000005 187.09838999999997 146.83271000000008 181.58168999999998 146.44650000000007 C 180.8215 146.39453000000006 179.93722999999997 146.31106000000008 179.62023999999997 146.26394000000008 L 179.04282999999998 146.17586000000009 L 179.04282999999998 143.46326000000008 C 179.04282999999998 141.9716200000001 179.09465999999998 138.3416100000001 179.15963999999997 135.39690000000007 L 179.27645999999996 130.04314000000008 L 205.73124999999996 130.08913000000007 L 232.18604999999997 130.13512000000006 L 232.23211999999995 149.07770000000005 L 232.27818999999994 168.02028000000004 L 230.70776999999993 168.02028000000004 L 229.1373499999999 168.02028000000004 L 229.0261899999999 165.66780000000006 C 228.7046399999999 158.79459000000006 226.6408499999999 153.42550000000006 223.0059299999999 149.99625000000006 C 220.6148999999999 147.74070000000006 218.0097299999999 146.59471000000005 214.8841699999999 146.42665000000005 C 209.1204999999999 146.11488000000006 204.1848599999999 149.84730000000005 203.2580099999999 155.21520000000004 C 203.0713299999999 156.30052000000003 202.9928899999999 165.33681000000004 202.8759099999999 199.95705000000004 C 202.6808399999999 256.98682 202.6660499999999 252.17323000000005 203.0568899999999 253.44490000000005 C 204.7300699999999 258.90134000000006 210.1078799999999 263.15229000000005 216.0818299999999 263.74391 L 217.3680999999999 263.87030000000004 L 217.3680999999999 274.67665000000005 L 217.3680999999999 285.48300000000006 L 198.32262999999992 285.48300000000006 C 187.84717999999992 285.48300000000006 179.2251599999999 285.43104000000005 179.1599899999999 285.3657800000001 z M 248.60207 280.38045 C 248.60201 277.57478 248.55031 272.71927 248.48555 269.59207 L 248.36912999999998 263.90625 L 250.03234999999998 263.6864 C 255.98846999999998 262.89386 260.78341 258.92458999999997 262.18106 253.63428 C 262.43254 252.68323999999998 262.4792 247.41273999999999 262.623 203.9525 C 262.72562 172.62260999999998 262.72109 154.89181 262.6092 154.09265 C 262.12504 150.60267 260.54978 148.10035 258.06597999999997 146.87874 C 255.21369999999996 145.47540999999998 251.73315999999997 146.61703 249.08642999999998 149.82398 C 247.28221999999997 152.01371 245.71713999999997 155.56598 244.90179999999998 159.33482 C 244.44550999999998 161.44104000000002 243.98870999999997 164.87154 243.98458999999997 166.21292 C 243.97965999999997 168.03082 243.98951999999997 168.0216 242.27961999999997 168.0216 L 240.79269999999997 168.0216 L 240.79269999999997 149.03617 L 240.79269999999997 130.05074 L 267.49868999999995 130.05074 L 294.20467999999994 130.05074 L 294.20467999999994 149.03617 L 294.20467999999994 168.0216 L 292.6343099999999 168.0216 L 291.0639599999999 168.0216 L 290.95749999999987 165.31468 C 290.75174999999984 159.99314 289.5644999999999 155.37544 287.4850299999999 151.78671 C 286.51515999999987 150.11325 284.4094699999999 147.92296 283.0954199999999 147.21934 C 279.30181999999985 145.18764 275.32691999999986 146.39012 273.4866899999999 150.12709999999998 C 272.2370399999999 152.66729999999998 272.3447999999999 148.63099999999997 272.1719799999999 198.98367 C 272.0872899999999 223.96658 272.0412599999999 246.32493 272.0702599999999 248.66545 C 272.1253499999999 252.72878 272.1488199999999 252.98524999999998 272.5919399999999 254.25358 C 272.8480499999999 254.98532 273.2486399999999 255.92122 273.4817999999999 256.33138 C 275.6908799999999 260.21386 280.0898299999999 263.09286000000003 284.7350899999999 263.69046000000003 L 286.2221799999999 263.88191 L 286.1758499999999 274.6374 L 286.12961999999993 285.3929 L 267.36423999999994 285.43892999999997 L 248.59886999999995 285.48495999999994 L 248.59886999999995 280.38240999999994 z M 302.72302 274.65777 L 302.72302 263.83281000000005 L 313.99948 263.83281000000005 L 325.27594 263.83281000000005 L 326.28772 263.09205000000003 C 329.76797 260.54795 332.90997999999996 257.56082000000004 334.99226 254.82108000000002 C 338.11494 250.71052000000003 340.45423 245.76617000000002 341.68424999999996 240.67696000000004 C 342.56884999999994 237.01965000000004 342.68675999999994 235.71906000000004 342.77925 228.83177000000003 C 342.82617999999997 225.24417000000003 342.81721 222.31180000000003 342.76052 222.31180000000003 C 342.70382 222.31180000000003 342.26637999999997 222.55011000000005 341.79098999999997 222.84332000000003 C 338.18899 225.06072000000003 333.20802999999995 225.98389000000003 328.82188999999994 225.24856000000003 C 321.07731999999993 223.9533 315.4942899999999 218.99493000000004 314.06451999999996 212.14455000000004 C 313.74240999999995 210.59357000000003 313.71486 209.04101000000003 313.54677 182.11990000000003 C 313.35179 151.20901000000003 313.40657999999996 152.60229000000004 312.35812999999996 150.80515000000003 C 310.88478999999995 148.27992000000003 307.21288 146.36437000000004 303.84907999999996 146.36437000000004 L 302.72171 146.36437000000004 L 302.76813999999996 138.24654000000004 L 302.81456999999995 130.12871000000004 L 316.16608999999994 130.08252000000005 L 329.51761999999997 130.03633000000005 L 329.51761999999997 138.20035000000004 L 329.51761999999997 146.36437000000004 L 328.74825 146.36437000000004 C 327.70511 146.36437000000004 325.96560999999997 147.24945000000002 325.26291 148.13479000000004 C 323.99944 149.73248000000004 323.36699999999996 151.82497000000004 323.12399999999997 155.23683000000003 C 323.03043999999994 156.55514000000002 322.87746 169.11464000000004 322.78808999999995 183.15008000000003 C 322.60711 210.89574000000005 322.57457999999997 209.71825000000004 323.57030999999995 211.39772000000002 C 324.5031599999999 212.97685 326.6834099999999 214.57039000000003 328.8087699999999 215.22833000000003 C 334.19100999999995 216.89699000000002 339.5640899999999 215.09781000000004 341.6933399999999 210.91296000000003 C 342.70449999999994 208.92387000000002 342.6807599999999 209.32409 342.83451999999994 192.32370000000003 C 342.91327999999993 183.68795000000003 342.98306999999994 171.54947000000004 342.98850999999996 165.35190000000003 C 342.99837999999994 154.84308000000004 342.97864 153.97189000000003 342.65355999999997 152.40639000000002 C 341.90331999999995 148.77117 340.16445 146.69827 337.59698 146.38563000000002 L 336.70658 146.27786000000003 L 336.70658 138.20579000000004 L 336.70658 130.13372000000004 L 350.14671999999996 130.08754000000005 L 363.58684999999997 130.04136000000005 L 363.58684999999997 138.17801000000006 L 363.58684999999997 146.31466000000006 L 361.59173 146.41797000000005 C 356.82376999999997 146.66899000000006 354.19568999999996 148.52898000000005 353.4747 152.16452000000007 C 353.38164 152.63490000000007 353.02790999999996 171.54472000000007 352.69128 194.18447000000006 C 352.35172 216.82693000000006 352.02962 236.38613000000007 351.97356 237.65316000000007 C 351.59206 246.20520000000008 348.63175 254.0806800000001 343.48812000000004 260.2085900000001 C 342.74273000000005 261.0978400000001 341.6469 262.2734500000001 341.05068000000006 262.8269000000001 L 339.96875000000006 263.8291900000001 L 349.3859100000001 263.8291900000001 L 358.8030700000001 263.8291900000001 L 358.7567400000001 274.6081700000001 L 358.7105100000001 285.3871600000001 L 330.7182500000001 285.4330900000001 L 302.72599000000014 285.4790200000001 z M 54.65734 132.35147 L 54.65734 130.22196 L 74.44316 130.22196 L 94.22898 130.22196 L 94.22898 132.35147 L 94.22898 134.48098000000002 L 74.44316 134.48098000000002 L 54.657340000000005 134.48098000000002 z M 371.39306 132.35147 L 371.39306 130.22196 L 391.26749 130.22196 L 411.14192 130.22196 L 411.14192 132.35147 L 411.14192 134.48098000000002 L 391.26749 134.48098000000002 L 371.39306 134.48098000000002 z M 90.85604 119.32093 C 92.83201 118.24883 232.71163 47.18074 232.8467 47.18074 C 233.02842 47.18074 372.74388 118.17172 374.32004 119.06583 L 375.20611 119.5689 L 232.80663 119.56477 C 112.80258 119.56084 90.477 119.52315 90.85311000000002 119.32184 z M 355.15738 114.48769 C 354.66857999999996 114.23594 328.5995 100.97789 297.2235 85.02601 C 265.84749 69.07413 238.53064 55.17841 236.51841000000002 54.14857 L 232.86113 52.27561 L 172.54749 82.93433 C 139.37689 99.79532 111.67475000000002 113.90007 110.99335000000002 114.27338 L 109.74992000000002 114.95371 L 232.89522000000002 114.94928 L 356.04052 114.94485 L 355.15445 114.48765 z M 133.1128 109.3776 C 133.29927999999998 109.19112 232.66818999999998 58.71372 232.84661999999997 58.71372 C 233.06098999999998 58.71372 332.16472999999996 109.06108 332.43543999999997 109.30799999999999 C 332.52919999999995 109.39269999999999 288.87293999999997 109.46159999999999 232.81467999999995 109.46159999999999 C 177.92994999999996 109.46159999999999 133.06336999999996 109.42408999999999 133.10986999999994 109.37758999999998 z M 318.14694 105.84471 C 318.10544 105.80732 298.89691999999997 96.02598 275.46126 84.1097 L 232.84990999999997 62.44109 L 192.86228999999997 82.77787000000001 C 170.86776999999998 93.96252000000001 151.63579999999996 103.73936 150.12489999999997 104.50354000000002 L 147.37513999999996 105.89243000000002 L 232.79820999999995 105.90180000000002 C 279.7807399999999 105.90663000000002 318.18841 105.87924000000002 318.14694 105.84181000000002 z M 232.80955 98.54517 C 232.66437 98.512 232.16595 98.43337 231.70128 98.3727 C 231.23955 98.31203 230.7599 98.16716 230.63799 98.05042999999999 C 230.51609 97.93369999999999 229.77566000000002 97.65414 228.99357 97.43018 C 227.80611000000002 97.08971 225.17759 96.02349 225.17759 95.88386 C 225.17759 95.8609 225.30291 95.54425 225.45313000000002 95.18056 C 225.60628000000003 94.81687 225.70487000000003 94.49615 225.67612000000003 94.47175 C 225.64736000000002 94.44445 225.28941000000003 94.25715 224.88395000000003 94.05232 C 224.47848000000002 93.84749 223.97099000000003 93.45984999999999 223.75685000000001 93.18634 L 223.36935000000003 92.69277 L 223.81191 92.36167999999999 L 224.25446000000002 92.03058999999999 L 223.89078000000003 91.41476999999999 C 223.58745000000005 90.89822 223.56871000000004 90.77171999999999 223.77493000000004 90.64074 C 223.96568000000005 90.51983999999999 223.93326000000005 90.48228999999999 223.63967000000005 90.48151999999999 C 223.38881000000006 90.48085999999999 223.11363000000006 90.25263999999999 222.85638000000006 89.83342999999999 C 222.47868000000005 89.22246999999999 222.47407000000007 89.17599 222.77192000000005 88.9576 C 223.11263000000005 88.70665 223.00888000000006 88.351 222.59097000000006 88.351 C 222.44716000000005 88.351 222.23671000000004 88.14179 222.12038000000007 87.88903 C 221.94306000000006 87.49809 221.95727000000008 87.39063 222.21334000000007 87.20403 C 222.58672000000007 86.92954 222.60091000000008 86.75607000000001 222.25064000000006 86.75607000000001 C 222.05959000000007 86.75607000000001 221.98481000000007 86.56060000000001 221.98481000000007 86.06598000000001 C 221.98481000000007 85.61458 222.07781000000006 85.33925 222.25064000000006 85.27351000000002 C 222.54491000000007 85.16110000000002 222.61894000000007 84.62656000000001 222.33925000000005 84.62656000000001 C 222.14348000000004 84.62656000000001 222.10122000000004 83.92767 222.26941000000005 83.48884000000001 C 222.32949000000005 83.33484000000001 222.48766000000006 83.20884000000001 222.61926000000005 83.20884000000001 C 222.79552000000007 83.20884000000001 222.83315000000005 83.06004000000001 222.75498000000005 82.67796000000001 C 222.62998000000005 82.05884000000002 223.08991000000006 81.21495000000002 223.46813000000006 81.35984000000002 C 223.73796000000007 81.46263000000002 224.00880000000006 80.96805000000002 223.76614000000006 80.81848000000002 C 223.68216000000007 80.76694000000002 223.65464000000006 80.56244000000002 223.70597000000006 80.36631000000003 C 223.76193000000006 80.15198000000002 223.61818000000005 79.73688000000003 223.35134000000008 79.33112000000003 C 222.67512000000008 78.30668000000003 222.46114000000009 77.37424000000003 222.78822000000008 76.87457000000003 C 222.9334100000001 76.65096000000004 223.15230000000008 76.46881000000003 223.27333000000007 76.46881000000003 C 223.47757000000007 76.46881000000003 224.07450000000009 77.08899000000004 224.47146000000006 77.71350000000004 C 224.60673000000006 77.92714000000004 224.80177000000006 77.80136000000005 225.48287000000008 77.05677000000004 C 226.47974000000008 75.97144000000004 226.60168000000007 75.90543000000004 228.55372000000008 75.37961000000004 C 230.71623000000008 74.79749000000004 234.1963100000001 74.80124000000004 236.4424600000001 75.38444000000004 C 238.1718100000001 75.83572000000004 241.12508000000008 77.03370000000004 241.33139000000008 77.36987000000003 C 241.40168000000008 77.48576000000003 241.35042000000007 77.84054000000003 241.21873000000008 78.16152000000004 C 240.98043000000007 78.73458000000004 240.98552000000007 78.74882000000004 241.59196000000009 79.10750000000004 C 242.3041100000001 79.52687000000005 242.34177000000008 79.72328000000005 241.85338000000007 80.45912000000004 C 241.41024000000007 81.12987000000004 241.41046000000009 81.25659000000005 241.85771000000008 81.25659000000005 C 242.30449000000007 81.25659000000005 242.7239500000001 82.05418000000004 242.43085000000008 82.34727000000005 C 242.14741000000006 82.63072000000005 242.35546000000008 83.00488000000006 242.73442000000009 82.90632000000005 C 243.1487400000001 82.79877000000005 243.3493300000001 83.36687000000005 243.19162000000009 84.20101000000005 C 243.1027300000001 84.67693000000006 243.13591000000008 84.80674000000005 243.3508600000001 84.80674000000005 C 243.5517000000001 84.80674000000005 243.62553000000008 84.99370000000005 243.62553000000008 85.51560000000005 C 243.62553000000008 86.02821000000004 243.55120000000008 86.22446000000005 243.3597000000001 86.22446000000005 C 243.21452000000008 86.22446000000005 243.0938700000001 86.30391000000004 243.0938700000001 86.40167000000005 C 243.0938700000001 86.49943000000005 243.2145100000001 86.57888000000005 243.3597000000001 86.57888000000005 C 243.5048700000001 86.57888000000005 243.6251300000001 86.71866000000006 243.62462000000008 86.89047000000005 C 243.6199900000001 87.48681000000005 243.40587000000008 87.99953000000005 243.16309000000007 87.99953000000005 C 242.86879000000008 87.99953000000005 242.85938000000007 88.08424000000005 243.10773000000006 88.48923000000005 C 243.38335000000006 88.93623000000005 243.03245000000007 89.77461000000005 242.56681000000006 89.77461000000005 C 242.17570000000006 89.77461000000005 242.10529000000005 89.95622000000006 242.38519000000005 90.23611000000005 C 242.60471000000004 90.45563000000006 241.80739000000005 91.60672000000005 241.56947000000005 91.41442000000005 C 241.48108000000005 91.34379000000006 241.58840000000006 91.48880000000005 241.80762000000004 91.73993000000004 C 242.02685000000005 91.99107000000005 242.20782000000005 92.28517000000005 242.20782000000005 92.39644000000004 C 242.20782000000005 92.50771000000005 241.81236000000004 92.93688000000004 241.33162000000004 93.35179000000004 L 240.45542000000003 94.10671000000004 L 240.75418000000002 94.61439000000003 C 241.04716000000002 95.10846000000002 241.04286000000002 95.13122000000003 240.60993000000002 95.46749000000003 C 240.05029000000002 95.90540000000003 237.45014000000003 97.22935000000003 237.15177000000003 97.22935000000003 C 237.02988000000002 97.22935000000003 236.83409000000003 97.34516000000002 236.71767000000003 97.48508000000002 C 236.60125000000002 97.62500000000003 236.27102000000002 97.79212000000003 235.98610000000002 97.85353000000002 C 235.70118000000002 97.91494000000002 235.46487000000002 98.03549000000002 235.46487000000002 98.11915000000002 C 235.46487000000002 98.20280000000002 235.32509000000002 98.31016000000002 235.15328000000002 98.35739000000002 C 234.67737000000002 98.49244000000003 233.10214000000002 98.62376000000002 232.80079000000003 98.55397000000002 z M 236.31826 87.66992 C 236.36067 87.53974000000001 236.28075 87.50158 236.10818 87.56722 C 235.95411000000001 87.62733 235.82806 87.7534 235.82806 87.84737000000001 C 235.82806 88.08046000000002 236.23269 87.93540000000002 236.32119 87.66992000000002 z M 230.85102 87.11326 C 231.19063 86.78233 231.31632000000002 86.54500999999999 231.19156 86.46992 C 231.08446 86.40436 230.93589 86.44676 230.86466000000001 86.5671 C 230.79049 86.68742 230.54744000000002 86.87513 230.32326 86.99038999999999 C 230.09906 87.10271999999999 229.88077 87.29720999999999 229.83946 87.41868 C 229.70453 87.82802 230.31007 87.64676999999999 230.85103 87.11618999999999 z M 234.93359 87.19678 C 236.28085000000002 86.49846000000001 236.58336 85.04897 235.65044 83.75845000000001 C 234.99880000000002 82.85966 234.87739 82.82652000000002 235.21704 83.63733 C 236.01364 85.54310000000001 234.78337 87.25308000000001 232.75621999999998 87.05771 C 231.94521999999998 86.97896 231.90753999999998 86.99245 232.29882999999998 87.20767 C 232.87215999999998 87.52490999999999 234.31127999999998 87.51923 234.93652999999998 87.19386999999999 z M 234.05299 85.89253 C 234.05299 85.81263 233.67485 85.47837 233.20974999999999 85.15558999999999 L 232.36650999999998 84.56419 L 233.06933999999998 85.30113 C 233.74900999999997 86.01446 234.05298 86.19979000000001 234.05298 85.89253 z M 231.84936 84.27028 C 232.75421 83.4357 232.54764 83.09994999999999 231.59775 83.8653 C 231.00636 84.34444 230.64265 84.97443 230.95892999999998 84.97443 C 231.02865999999997 84.97443 231.4295 84.65742 231.84936 84.27028 z M 27.46995 411.31839 C 13.73656 402.07766000000004 2.4970500000000015 394.45306000000005 2.4962000000000018 394.37354000000005 C 2.492070000000002 394.26255000000003 3.200450000000002 393.12501000000003 3.6525700000000016 392.51398000000006 C 3.6892900000000015 392.46675000000005 53.50536 425.89477000000005 53.813120000000005 426.1742300000001 C 53.953540000000004 426.30385000000007 52.77906000000001 428.1502300000001 52.56891 428.1314700000001 C 52.49875 428.1265400000001 41.203340000000004 420.5591300000001 27.46995 411.3183900000001 z M 412.67522 427.21945 C 412.32062 426.71164 412.08839 426.24538 412.16242 426.18104 C 412.29687 426.06532 461.04114 393.32331 461.90799 392.7677 L 462.36921 392.47015999999996 L 463.01638 393.44384999999994 L 463.66356 394.4175599999999 L 462.64376000000004 395.10279999999995 C 444.15741 407.54576999999995 413.46246 428.1421899999999 413.40214000000003 428.1421899999999 C 413.35631 428.1421899999999 413.0298 427.7272499999999 412.67521000000005 427.2194399999999 z M 82.60272 403.4641 C 77.33302 390.57493 73.00280000000001 379.97245999999996 72.97547 379.89883999999995 C 72.92841 379.76811999999995 74.64756 378.99003999999996 74.98391 378.99003999999996 C 75.08205 378.99003999999996 78.98732 388.35213 83.66163999999999 399.79339 C 88.33595 411.23465 92.66431999999999 421.82081 93.27600999999999 423.31269 L 94.39055999999998 426.02864 L 93.64081999999998 426.34984 C 93.23007999999997 426.52669 92.73167999999998 426.72218999999996 92.53554999999997 426.7834 C 92.20848999999997 426.88642 91.39302999999997 424.97470999999996 82.59979999999997 403.4641 z M 372.67933 426.48412 C 372.16681 426.27464000000003 371.74739 426.02302000000003 371.74728 425.92501000000004 C 371.74662 425.48288 390.84463999999997 378.99875000000003 391.03024999999997 378.99504 C 391.22159999999997 378.99011 392.87084 379.64769 393.00553999999994 379.7824 C 393.0381699999999 379.81503 388.77861999999993 390.32881 383.5372499999999 403.14829 C 378.29878999999994 415.96776 373.9709899999999 426.55553 373.92412999999993 426.67699999999996 C 373.81746999999996 426.94809999999995 373.8220099999999 426.95126999999997 372.67932999999994 426.48191999999995 z M 61.40029 425.7464 C 55.51913 424.11553 50.840669999999996 420.43779 45.962329999999994 413.60638 C 45.2542 412.61425 44.71769 411.76151 44.768769999999996 411.71043 C 44.912699999999994 411.56651 50.85062 412.8196 52.859019999999994 413.41612999999995 C 58.03113999999999 414.95336999999995 61.847359999999995 417.12051999999994 64.50353 420.02923999999996 C 65.98962 421.65597999999994 66.45185 422.57786999999996 66.29325 423.58404999999993 C 66.05542 425.0899599999999 64.85371 426.20750999999996 63.50226 426.17893999999995 C 63.17583 426.17006999999995 62.22979 425.97831999999994 61.40029 425.74638999999996 z M 401.45959 426.03104 C 400.86734 425.77433 399.9912 424.65171000000004 399.78282 423.88694000000004 C 399.48847 422.78783000000004 399.79169 422.03627000000006 401.18467000000004 420.40208 C 404.04116000000005 417.05633 408.57108000000005 414.58121 414.77774000000005 412.97356 C 416.67890000000006 412.48017000000004 421.11613000000006 411.62205 421.22222000000005 411.72520000000003 C 421.33008000000007 411.83306000000005 419.52087000000006 414.41828000000004 418.0761600000001 416.21311000000003 C 415.1729700000001 419.82066000000003 411.3609900000001 422.98429000000004 408.09510000000006 424.49356 C 405.57452000000006 425.65828 402.33117000000004 426.40892 401.45959000000005 426.03105 z M 72.61242 425.6136 C 71.93642 425.28762 70.14257 422.72894 69.11666 420.62293 C 66.8845 416.04693 66.28787 410.80464 67.18715 403.67441 C 67.58863000000001 400.48168000000004 67.51256000000001 400.55146 68.87439 402.17928 C 73.70129 407.9483 76.42349 412.88731 77.29553 417.44988 C 77.58449 418.96001 77.63055 422.60376 77.37040999999999 423.53557 C 77.16067 424.29063 76.28429 425.18109 75.38005 425.55848000000003 C 74.62429999999999 425.87497 73.21361999999999 425.90270000000004 72.61243 425.61357000000004 z M 390.5591 425.55243 C 389.02152 424.88597000000004 388.56939 424.01969 388.4659 421.54482 C 388.21452 415.63595000000004 390.70261 410.02997 396.94273 402.4393 C 397.78069999999997 401.42284 398.31297 400.90595 398.38761 401.04158 C 398.75111 401.70394 399.1558 406.11097 399.15598 409.4203 C 399.15598 413.4846 398.9176 415.16623 397.89378 418.24148 C 396.96641 421.03303 394.70581 424.76084000000003 393.4856 425.50663000000003 C 392.83277 425.90711000000005 391.4267 425.92675 390.5591 425.55246000000005 z M 71.88136 396.68765 C 68.6193 387.19936 65.92048 379.34340000000003 65.88006 379.23438000000004 C 65.82405 379.07073 67.95788 378.18080000000003 68.05197 378.32959000000005 C 68.14085 378.46898000000004 80.02835999999999 413.08078000000006 80.02835999999999 413.2048500000001 C 80.02835999999999 413.3439400000001 78.33264999999999 413.9548400000001 77.97287999999999 413.9462200000001 C 77.88416 413.9455700000001 75.14341999999999 406.1783900000001 71.87843 396.6901100000001 z M 386.83125 413.64205 C 386.3928 413.48886999999996 386.00582 413.34310999999997 385.96969 413.31183999999996 C 385.92296 413.27065 397.10713000000004 380.66902999999996 397.84795 378.68787 L 397.99287000000004 378.29688 L 399.06493000000006 378.65988 C 399.65602000000007 378.85979 400.13714000000004 379.07462 400.13734000000005 379.13948999999997 C 400.13734000000005 379.20435 397.44471000000004 387.06152 394.15458000000007 396.60081999999994 C 389.6387900000001 409.69505999999996 388.10557000000006 413.94133999999997 387.9000700000001 413.93156999999997 C 387.7505200000001 413.92269999999996 387.26675000000006 413.79227999999995 386.82828000000006 413.64207 z M 52.30404 411.37047 C 50.14178 410.5776 46.92615 408.3652 45.159440000000004 406.45874000000003 C 43.69182000000001 404.87482000000006 42.232310000000005 402.85696 41.08115 400.82456 C 40.06072 399.02171000000004 38.07597 394.62739 38.219660000000005 394.48663 C 38.363820000000004 394.34251 43.16825000000001 396.37833 45.200520000000004 397.44199 C 49.535050000000005 399.71549 52.586510000000004 402.238 54.49327 405.13574 C 55.825790000000005 407.15803 56.28304 408.33641 56.082800000000006 409.22234 C 55.887710000000006 410.08376 55.17947000000001 410.98834 54.419320000000006 411.34803999999997 C 53.68853000000001 411.69334999999995 53.203120000000006 411.69807999999995 52.30404000000001 411.37069999999994 z M 411.41201 411.2347 C 410.56351 410.75435999999996 409.90692 409.67402999999996 409.90250000000003 408.75131 C 409.90184000000005 408.34663 410.12145000000004 407.64180999999996 410.45673000000005 406.97623 C 412.49699000000004 402.93174 416.12295000000006 399.71641 421.70086000000003 397.00862 C 424.27845 395.75561 427.63736000000006 394.36088 427.76341 394.48692 C 427.80954 394.53315 427.55906000000004 395.26039 427.20954 396.10412 C 424.87469 401.74368000000004 421.77658 406.11364000000003 418.20583 408.80662 C 416.56581 410.04171 413.42878 411.64074 412.65165 411.63916 C 412.35812000000004 411.63851 411.79941 411.45698 411.41203 411.23763 z M 60.3791 411.15221 C 59.279270000000004 410.55593000000005 57.18249 407.19089 56.20412 404.45070000000004 C 55.207010000000004 401.65861000000007 54.53618 396.70616000000007 54.75039 393.71888 C 55.00191 390.20980000000003 55.248380000000004 387.84782 55.3697 387.77304000000004 C 55.556110000000004 387.65702000000005 58.13745 390.92719000000005 59.71334 393.27584 C 63.09141 398.30433 64.60083 402.54002 64.59164 406.96689000000003 C 64.58661 409.71220000000005 64.0838 410.65716000000003 62.307649999999995 411.25893 C 61.478719999999996 411.53900000000004 61.04989 411.51554000000004 60.37909 411.15217 z M 403.53762 411.22978 C 402.68493 410.90826 401.78533 409.98151 401.57039000000003 409.20646 C 401.29997000000003 408.23226999999997 401.34158 405.71598 401.65821000000005 403.90309 C 402.24948000000006 400.51914 403.65294000000006 397.28116 406.1779000000001 393.49227 C 407.6824400000001 391.23604 410.2879900000001 387.83099000000004 410.59571000000005 387.72383 C 410.86633000000006 387.63017 411.22411000000005 391.80602000000005 411.22021000000007 395.04990000000004 C 411.21628000000004 399.40741 410.7129300000001 402.24891 409.3602000000001 405.56375 C 408.62383000000005 407.36711 406.58830000000006 410.588 405.90325000000007 411.03886 C 405.3294000000001 411.41605 404.2625700000001 411.50074 403.5405400000001 411.22981 z M 21.17495 392.43734 L 0.5552799999999998 373.62023 L 1.2869199999999998 372.75311999999997 C 1.6883 372.27707999999996 2.08335 371.90585999999996 2.16221 371.93336999999997 C 2.28296 371.97497 34.60438 401.36933 41.30539 407.53137999999996 L 43.49513 409.54447999999996 L 42.74038 410.36974 C 42.32556 410.82262 41.943310000000004 411.2086 41.891580000000005 411.22326 C 41.839850000000006 411.23805999999996 32.51648 402.78409 21.177860000000006 392.43440999999996 z M 423.41666 410.51884 C 423.00743 410.10380000000004 422.67553 409.67578000000003 422.67553 409.56898 C 422.67553 409.46212 431.47850999999997 401.35346 442.23837 391.54863 C 452.99823 381.74381 462.26291 373.29949 462.83015 372.78253 L 463.85616 371.84207000000004 L 464.30887 372.26592000000005 C 464.55975 372.49887000000007 464.91481 372.90054000000003 465.10111 373.16105000000005 L 465.44065 373.63232000000005 L 445.61165 391.69915000000003 C 434.70644 401.6349 425.41567 410.10535000000004 424.97169 410.51705000000004 L 424.16072 411.26811000000004 z M 399.51969 396.83885 C 398.93312000000003 396.62464 398.47033000000005 396.37332999999995 398.48542000000003 396.28046 C 398.53588 396.01085 407.46548 369.85898000000003 407.53921 369.7734 C 407.6238 369.67037999999997 409.53914000000003 370.32263 409.64520000000005 370.49069 C 409.70976 370.59331 400.76248000000004 397.07617999999997 400.62300000000005 397.19708999999995 C 400.6003400000001 397.21581999999995 400.10625000000005 397.05306999999993 399.52261000000004 396.83883 z M 64.81063 395.53727 C 64.52148 394.68406 62.508120000000005 388.79431999999997 60.336490000000005 382.45156 C 58.164860000000004 376.10880999999995 56.37946 370.80634999999995 56.36634000000001 370.67094 C 56.34751000000001 370.44746 58.30928000000001 369.62685999999997 58.468520000000005 369.79031 C 58.565960000000004 369.88849999999996 67.61681 396.43575999999996 67.56891 396.47332 C 67.44225 396.57081 65.74287 397.0923 65.55606 397.0923 C 65.43523 397.0923 65.09978 396.39341 64.81064 395.5402 z M 47.54604 396.31082 C 46.63185 395.98938999999996 44.876129999999996 394.88955 43.41643 393.71988 C 40.113009999999996 391.07739 37.474129999999995 387.462 35.39653 382.74554 C 34.63754 381.02211 32.65632 375.35863 32.65632 374.91242 C 32.65632 374.5438 37.45673 377.14976 40.40072 379.11655 C 45.40551 382.46266 48.75695 386.12124 50.49855 390.13708 C 51.70118 392.91413 51.71043 393.91102 50.5452 395.23600000000005 C 49.62168 396.28927000000004 48.56911 396.66629000000006 47.548970000000004 396.3079000000001 z M 417.23812 396.37575 C 416.08299 396.12831 415.08443 395.10778 414.68408999999997 393.77083 C 414.47954 393.09026 414.50280999999995 392.90375 414.94915999999995 391.64132 C 416.78030999999993 386.44606 420.55445999999995 382.25992 427.11173999999994 378.14095000000003 C 429.53570999999994 376.61747 433.32304999999997 374.65947000000006 433.32304999999997 374.92578000000003 C 433.32304999999997 375.32632 432.06044999999995 379.20869000000005 431.35222 380.9882 C 430.35555999999997 383.49002 428.90958 386.30046 427.63379 388.20592 C 425.68589 391.11832 422.49917999999997 394.15192 419.80917999999997 395.65754 C 418.55537 396.36053 417.94939999999997 396.52900999999997 417.24102999999997 396.37575999999996 z M 17.43722 374.42868 L 0 356.2084 L 0.75464 355.43967 C 1.1694 355.01613999999995 1.60709 354.69381999999996 1.72467 354.72148 C 2.0272699999999997 354.79087 36.55798 390.88858 36.55798 391.13563999999997 C 36.55798 391.30332 35.09857 392.65966 34.92706 392.65014999999994 C 34.89826 392.64949999999993 27.024469999999997 384.44838999999996 17.437219999999996 374.42867999999993 z M 430.12708 391.85517 L 429.34366 391.05743 L 430.24711 390.12584 C 430.74489 389.61347 438.55997 381.44916 447.61494000000005 371.98391 C 456.66992000000005 362.51865999999995 464.16754000000003 354.75068 464.27471 354.72303 C 464.38187000000005 354.69533 464.81492000000003 355.02558 465.23505 355.45454 L 466 356.23659000000004 L 448.56179 374.44766000000004 C 438.97108 384.46258000000006 431.07667999999995 392.65874 431.01705 392.65874 C 430.96035 392.65874 430.55971999999997 392.29963000000004 430.12709 391.86102 z M 52.82045 384.26541 C 52.68601 383.94935 50.88194 379.70234 48.80847 374.82016999999996 C 46.735 369.94089999999994 44.96881 365.76613999999995 44.88424 365.54617999999994 C 44.74369 365.17862999999994 44.81892 365.1034399999999 45.732479999999995 364.69848999999994 C 46.28621 364.4554799999999 46.79975999999999 364.31681999999995 46.87826999999999 364.39532999999994 C 47.00914999999999 364.52624999999995 55.19190999999999 383.69678999999996 55.19190999999999 383.87370999999996 C 55.19190999999999 383.91963999999996 54.893229999999996 384.08318999999995 54.52588999999999 384.23789999999997 C 53.00242999999999 384.88645999999994 53.08523999999999 384.88599 52.82044999999999 384.2655 z M 411.85077 384.3931 C 411.31456000000003 384.16962 410.88611000000003 383.88092 410.89999 383.75079 C 410.93232 383.45179 418.94298 364.57872 419.11994 364.38772 C 419.24109999999996 364.2571 421.25487 365.03129 421.25487 365.20853 C 421.25487 365.37561 413.06246999999996 384.58534 412.94669 384.68787 C 412.88093 384.74809999999997 412.38698999999997 384.61364 411.85077 384.39016 z M 40.92794 371.40615 C 38.02518 365.18486 35.64845 360.01719 35.64436 359.92372 C 35.63923 359.74697 37.579029999999996 358.83791 37.69973 358.95972 C 37.80718 359.07111 48.26881 381.52426 48.26881 381.64537 C 48.26881 381.73470000000003 46.427440000000004 382.71678 46.25564 382.71678 C 46.22713 382.71678 43.82776 377.62744000000004 40.925 371.40615 z M 418.68233 382.24368 C 418.19352999999995 381.99219999999997 417.76871 381.7636 417.73602999999997 381.73523 C 417.68507 381.6894 428.12341 359.16211 428.28713 358.96109 C 428.36669 358.86310000000003 429.83045 359.43638 430.17447 359.70131000000003 C 430.42575 359.89306000000005 429.84752 361.22935 425.15173 371.27266000000003 C 422.23437 377.5172 419.7836 382.64335000000005 419.70819 382.66571000000005 C 419.62983 382.68837 419.16822 382.49803 418.68234 382.24659 z M 28.43485 371.2288 C 27.32149 369.63577 8.16846 341.20365 8.16846 341.14329 C 8.16846 341.10199 8.596499999999999 340.78828 9.11835 340.43993 L 10.06824 339.81055 L 20.30246 354.96497 C 25.93187 363.30107 30.57857 370.22722 30.629759999999997 370.36161 C 30.686369999999997 370.51126 30.39596 370.81379999999996 29.855649999999997 371.15925 C 29.379569999999998 371.46635 28.941539999999996 371.71762 28.881909999999998 371.71762 C 28.82521 371.71762 28.621699999999997 371.49837 28.434849999999997 371.22881 z M 436.11458 371.14129 C 435.65379 370.82397000000003 435.29852 370.50327000000004 435.32184 370.43255000000005 C 435.34551 370.36186000000004 439.99504 363.4462500000001 445.65264 355.06402 L 455.9413 339.82624000000004 L 456.87758 340.44657000000007 C 457.39093 340.7873000000001 457.81355 341.11715000000004 457.81022 341.1743600000001 C 457.80629 341.3881700000001 437.3148 371.6041500000001 437.13432 371.6600400000001 C 437.0326 371.6921700000001 436.57537 371.4556900000001 436.11458 371.1383700000001 z" stroke-linecap="round" />
</g>
</svg>