<?xml version="1.0" encoding="UTF-8" standalone="no"?>
<!-- Created with Inkscape (http://www.inkscape.org/) -->

<svg
   version="1.1"
   id="svg2"
   width="350"
   height="350"
   viewBox="0 0 350 350"
   sodipodi:docname="ticketQR.svg"
   inkscape:version="1.2.1 (9c6d41e410, 2022-07-14, custom)"
   xmlns:inkscape="http://www.inkscape.org/namespaces/inkscape"
   xmlns:sodipodi="http://sodipodi.sourceforge.net/DTD/sodipodi-0.dtd"
   xmlns="http://www.w3.org/2000/svg"
   xmlns:svg="http://www.w3.org/2000/svg">
  <defs
     id="defs6" />
  <sodipodi:namedview
     id="namedview4"
     pagecolor="#ffffff"
     bordercolor="#000000"
     borderopacity="0.25"
     inkscape:showpageshadow="2"
     inkscape:pageopacity="0.0"
     inkscape:pagecheckerboard="0"
     inkscape:deskcolor="#d1d1d1"
     showgrid="false"
     inkscape:zoom="2.3028571"
     inkscape:cx="175.21712"
     inkscape:cy="175.21712"
     inkscape:window-width="1920"
     inkscape:window-height="993"
     inkscape:window-x="0"
     inkscape:window-y="50"
     inkscape:window-maximized="1"
     inkscape:current-layer="g8" />
  <g
     inkscape:groupmode="layer"
     inkscape:label="Image"
     id="g8">
    <path
       style="fill:#5a87e9;fill-opacity:1"
       d="m 136.23212,333.78518 -10.26789,0.28518 -0.64126,-1.6711 -0.64126,-1.67111 1.00999,-1.61407 1.01,-1.61408 3.14915,-0.31336 L 133,326.87328 v -3.92322 -3.92322 l -3.46441,-1.44752 -3.46441,-1.44752 -0.644,-2.5659 -0.644,-2.5659 H 116.89159 109 v 3.93358 3.93358 l 2.64914,0.31642 2.64914,0.31642 1.01001,1.61408 1.01,1.61407 -0.62776,1.63593 L 115.06277,326 h -4.30888 -4.30888 l -2.15411,-1.5088 -2.1541,-1.50879 -0.3184,-2.20021 -0.3184,-2.20021 -2.5,-0.56188 -2.5,-0.56188 -1.5,-3.20747 -1.5,-3.20748 -4.29966,-0.0216 -4.29966,-0.0216 -2.905494,-1.50249 -2.905494,-1.50249 -0.637402,-3.39765 -0.637403,-3.39764 0.342557,-1.74268 0.342556,-1.74268 1.614077,-1.01633 1.614077,-1.01633 1.635923,0.62776 L 85,296.93731 v 3.53139 3.53138 h 23.55202 23.55202 l 1.05316,-3.02111 1.05317,-3.02111 1.82907,-0.97889 1.82908,-0.97889 h 8.09712 8.09713 l 0.62776,1.63592 0.62776,1.63593 -1.00999,1.61407 -1.01,1.61408 -3.0873,0.30875 -3.08729,0.30874 -0.31186,2.17552 -0.31185,2.17551 -3.21148,2.01574 -3.21148,2.01574 -0.0385,7.68664 -0.0385,7.68664 3.25,0.31336 3.25,0.31336 v 3 3 l -10.26788,0.28518 z M 201.93343,334 h -5.9962 l -0.62776,-1.63592 -0.62776,-1.63593 1.01214,-1.61407 1.01214,-1.61408 5.36664,-0.30988 5.36664,-0.30987 1.24162,1.69801 1.24162,1.69802 -0.99644,1.86186 L 207.92963,334 Z M 229.5,334 h -9.25511 l -1.31446,-1.58382 -1.31445,-1.58383 1.04286,-1.66617 1.04286,-1.66618 3.14915,-0.31336 L 226,326.87328 V 322.93664 319 h -4.43664 -4.43664 l -0.31336,3.24181 -0.31336,3.24181 -1.79804,0.34077 -1.79804,0.34076 -1.45196,-1.20502 L 210,323.75511 V 320.87756 318 h -1.84501 -1.84501 l -1.69577,-1.87379 -1.69576,-1.8738 0.29078,-8.86495 0.29077,-8.86495 1.9339,-0.37 1.93391,-0.36999 1.31609,1.79987 1.3161,1.79987 V 305.19113 311 h 4 4 v -9.04545 -9.04546 l 2.45455,-2.45454 L 222.90909,288 H 224.45455 226 v -4 -4 h -2.30887 -2.30887 l -1.81368,-1.3262 -1.81368,-1.32619 0.68994,-2.17381 L 219.13478,273 H 222.56739 226 v -1.82569 -1.82568 l 2.31445,-2.17432 L 230.6289,265 h 4.06311 4.0631 l 1.19184,1.43608 1.19184,1.43608 -1.10458,2.06392 L 238.92963,272 H 235.96482 233 v 4 4 h 2.42857 2.42857 l 1.57143,1.57143 1.57143,1.57143 v 0.72857 0.72857 l -1.2,1.2 -1.2,1.2 h -2.8 -2.8 v 8.5 8.5 h 3.82363 3.82364 l 0.92636,-3.75 0.92637,-3.75 h 2.5 2.5 l 0.88528,3.58183 0.88528,3.58182 2.81959,1.06428 2.81959,1.06427 0.65354,2.6039 0.65354,2.6039 H 260.60841 265 v -3.78076 -3.78076 l -3.06306,-1.15618 -3.06306,-1.15618 -1.15618,-3.06306 L 256.56152,295 h -2.65831 -2.65832 l -1.19184,-1.43608 -1.19184,-1.43608 1.10458,-2.06392 L 251.07037,288 h 2.85641 2.8564 l 0.63467,-2.5287 0.63466,-2.5287 3.47374,-1.65651 L 265,279.62958 v -5.14048 -5.14047 l 2.31445,-2.17432 L 269.6289,265 h 5.00034 5.00034 l 1.65651,-3.47375 1.65651,-3.47374 2.46291,-0.61815 2.46291,-0.61815 0.95556,-2.74113 0.95556,-2.74112 3.05419,-1.26509 3.05419,-1.26508 0.30604,-3.1519 L 296.5,242.5 h 3 3 l 0.27605,15.25 0.27604,15.25 h 2.77396 2.77395 l 1.2,1.2 1.2,1.2 v 0.72857 0.72857 l -1.57143,1.57143 L 307.85714,280 H 305.42857 303 v 3.98095 3.98095 l 2.53491,0.63622 2.53491,0.63622 1.48631,2.8742 1.48631,2.8742 -0.63549,2.53196 -0.63548,2.53196 -2.10824,1.47667 L 305.55499,303 H 300.27749 295 v 4.02475 4.02475 l 2.6685,1.01457 2.66851,1.01456 1.29969,1.71068 1.29969,1.71069 0.0318,7.62756 0.0318,7.62755 -1.58382,1.31446 -1.58383,1.31445 -1.66617,-1.0464 -1.66618,-1.04641 -0.29725,-6.7141 -0.29725,-6.71409 -2.81492,-0.98129 -2.81491,-0.98128 -1.13783,-2.49728 -1.13784,-2.49728 V 307.45295 303 h -8 -8 v 3.88871 3.88871 l 3.40345,0.63849 3.40345,0.63849 0.56516,1.4728 0.56517,1.4728 -0.53779,1.40146 -0.53779,1.40146 -2.18082,0.58488 -2.18083,0.58489 -8.5,-0.086 -8.5,-0.086 -2.5,-0.69214 -2.5,-0.69215 -2,-3.16965 -2,-3.16966 -3.5,-0.0322 -3.5,-0.0322 -1.70868,3.00271 -1.70868,3.00272 -2.54132,0.96621 -2.54132,0.96621 v 3.96139 3.96139 l 3.14915,0.31336 3.14915,0.31336 1.04286,1.66618 1.04286,1.66617 -1.31445,1.58383 L 238.75511,334 Z M 284,296 h 12 v -12 -12 h -12 -12 v 12 12 z m 0.41249,-9.20174 -2.0875,0.29825 -1.17975,-1.4215 -1.17975,-1.42151 0.59458,-1.54943 0.59457,-1.54943 1.54943,-0.59457 1.54943,-0.59458 1.42151,1.17975 1.4215,1.17975 -0.29825,2.0875 L 286.5,286.5 Z M 274.46862,334 h -8.53139 l -0.62776,-1.63592 -0.62776,-1.63593 1.01354,-1.61407 1.01354,-1.61408 6.6456,-0.29569 L 280,326.90862 v -2.38288 -2.38288 l 1.62894,-1.62894 1.62894,-1.62894 1.45285,0.55751 L 286.16357,320 H 286.58179 287 v 5 5 l -2,2 -2,2 z m -231.414964,-1.00977 -6.553656,-0.01 -5,-2.36375 -5,-2.36375 -2.691049,-2.87648 L 21.117902,322.5 19.080913,318 17.043924,313.5 17.021962,306.94634 17,300.39269 l 2.632535,-5.28281 2.632534,-5.28281 4.617466,-3.35246 4.617465,-3.35247 4.275945,-1.19829 4.275944,-1.1983 5.346451,0.5518 5.346452,0.5518 3.877604,1.9978 3.877604,1.99779 3.138047,3.33763 3.138047,3.33763 1.695819,3.36252 1.695818,3.36252 0.55336,5.36153 0.553359,5.36154 -1.198297,4.27595 -1.198297,4.27594 -3.352463,4.61747 -3.352464,4.61746 -5.282809,2.63254 L 49.607311,333 43.053656,332.99 Z m -0.771537,-7.03027 4.782118,0.04 3.233505,-1.35104 3.233504,-1.35105 3.128518,-3.56318 3.128518,-3.56319 1.208158,-3.66075 1.208158,-3.66076 -0.652585,-4.35175 -0.652586,-4.35175 -2.22351,-3.29947 -2.22351,-3.29947 -3.299467,-2.22351 -3.299466,-2.22351 -4.351753,-0.65258 -4.351752,-0.65259 -3.660755,1.20816 -3.660755,1.20816 -3.563185,3.12852 -3.563185,3.12851 -1.351045,3.23351 L 24,302.93572 v 4.57196 4.57196 l 1.89359,3.71016 1.893591,3.71016 1.856409,1.62484 1.85641,1.62484 3,1.58512 3,1.58512 4.782119,0.04 z M 42.272166,318 H 39.445012 L 36.972506,316.29589 34.5,314.59178 33.281803,313.04589 32.063607,311.5 l -0.0096,-4.5 -0.0096,-4.5 1.727764,-2.13296 L 35.5,298.23408 37.684259,297.11704 39.868517,296 h 2.615401 2.615402 l 2.735702,1.41469 2.735702,1.41468 1.381305,2.58099 1.381304,2.581 V 307 v 3.00864 l -1.381304,2.581 -1.381305,2.58099 -2.735702,1.41468 L 45.09932,318 Z m 47.129062,8 H 86.93723 l -0.575604,-1.5 -0.575604,-1.5 0.584308,-1.52268 0.584308,-1.52268 1.600222,-0.61407 1.600223,-0.61406 1.525237,1.52524 1.525237,1.52524 -0.670166,2.1115 L 91.865225,326 Z m 62.476522,-0.1959 -2.62226,0.30409 -0.62774,-1.63588 -0.62775,-1.63588 0.0153,-4.16822 0.0153,-4.16821 0.84777,-1.33749 0.84778,-1.33749 2.38691,0.33749 2.38691,0.33749 v 6.5 6.5 l -2.62225,0.3041 z M 187.15383,326 h -5.90894 l -1.1397,-1.37325 -1.1397,-1.37325 0.62756,-1.63538 0.62755,-1.63538 2.23502,-0.56096 2.23503,-0.56095 3.8034,0.31958 3.8034,0.31959 1.01042,1.61408 1.01042,1.61407 -0.62776,1.63593 L 193.06277,326 Z m 128.30502,-0.20782 -2.04115,0.29219 -0.70885,-0.70885 L 312,324.66667 v -2.22635 -2.22634 l 1.5,-0.57561 1.5,-0.5756 1.5541,0.59636 1.55409,0.59636 -0.30409,2.62226 L 317.5,325.5 Z m 15.4189,0.0119 -2.62226,0.30409 -0.62774,-1.63588 L 327,322.83641 v -1.94297 -1.94296 l -2.54132,-0.96621 -2.54132,-0.96621 -1.70868,-3.00272 -1.70868,-3.00271 -2,-0.0216 -2,-0.0216 -1.33749,-0.84777 -1.33749,-0.84778 0.33749,-2.38691 L 312.5,304.5 l 7.20706,-0.29294 7.20705,-0.29295 0.29295,-7.10229 0.29294,-7.10228 1.66618,-1.04678 1.66617,-1.04678 1.60633,1.33313 1.60632,1.33313 -0.2725,17.60888 L 333.5,325.5 l -2.62225,0.3041 z M 167.36163,318 h -2.4244 l -0.5756,-1.5 -0.57561,-1.5 0.57561,-1.5 0.5756,-1.5 h 2.4244 2.42439 l 0.57561,1.5 0.5756,1.5 -0.5756,1.5 -0.57561,1.5 z m 13.65244,-15 h -8.07684 l -0.55319,-1.44159 -0.55319,-1.44158 0.34518,-1.80842 0.34518,-1.80841 7.03514,-0.28969 7.03513,-0.28968 1.1412,-3.02338 1.1412,-3.02337 2.81306,-1.06484 2.81306,-1.06483 1.5,-3.10814 1.5,-3.10815 3.18259,-0.88929 3.18259,-0.88928 2.45711,0.61669 2.45711,0.6167 0.62755,1.63538 0.62756,1.63538 -1.1397,1.37325 -1.1397,1.37325 h -2.65832 -2.65831 l -1.15618,3.06306 -1.15618,3.06306 -3.06306,1.15618 L 194,295.43848 v 1.32621 1.32622 l -2.45455,2.45454 L 189.09091,303 Z m -59.52575,-8.21168 -2.01168,0.28832 -1.23832,-1.23832 L 117,292.6 V 289.8 287 H 107.5 98 l -2,-2 -2,-2 v -3 -3 l 2,-2 2,-2 h 1.48658 1.48658 l 1.44752,-3.46441 1.44752,-3.46441 2.5659,-0.644 2.5659,-0.644 V 260.39159 256 h -1.38922 -1.38921 l -2.15836,-1.75 -2.15835,-1.75 -0.57879,-5.5 -0.57879,-5.5 -3.123638,-2.01574 L 94.5,237.46852 94.180449,235.23426 93.860898,233 h -4.211211 -4.211212 l -1.128727,2.99034 -1.128726,2.99034 -2.655611,1.00966 L 77.869801,241 H 63.557345 49.244889 l -1.205063,-1.45201 -1.205063,-1.45201 0.650006,-2.04799 L 48.134775,234 H 59.067388 70 V 229.5 225 H 59.622445 49.244889 l -1.314456,-1.58382 -1.314455,-1.58383 1.04286,-1.66617 1.04286,-1.66618 3.149151,-0.31336 L 55,217.87328 V 213.93664 210 h -2.30887 -2.308871 l -1.79987,-1.3161 -1.79987,-1.31609 0.370094,-1.93391 0.370094,-1.9339 3.488646,-0.5 3.488647,-0.5 0.5,-3.48865 0.5,-3.48864 1.798039,-0.34393 1.79804,-0.34393 1.45196,1.20502 L 62,197.24489 V 200.12244 203 h 5.5 5.5 l 2,2 2,2 v 5.5 5.5 h 4.5 4.5 v -2.96482 -2.96481 l 1.775823,-0.95039 1.775823,-0.9504 1.724177,0.9649 L 93,212.09938 v 6.73107 6.73107 l 3.025032,1.14183 3.025033,1.14182 1.007695,2.82741 1.00769,2.82742 3.21727,1.5 3.21728,1.5 0.30816,2.16307 0.30816,2.16307 10.97998,0.33693 10.97998,0.33693 0.94655,1.5 0.94654,1.5 v 0.5 0.5 l -0.92595,1.46399 -0.92596,1.464 -7.05873,0.39885 L 116,249.22569 v 15.28933 15.28933 l 2.92252,1.0188 2.92252,1.01879 1.13311,2.11724 1.13311,2.11723 -0.30563,4.2118 L 123.5,294.5 Z M 66,218 h 4 v -4 -4 h -4 -4 v 4 4 z m 97.06353,77 h -2.7149 L 158.17431,292.68555 156,290.3711 v -2.57477 -2.57476 l 1.75,-2.06814 1.75,-2.06815 2.72483,-0.64473 2.72483,-0.64473 3.12726,3.12726 3.12726,3.12726 -0.64473,2.72483 -0.64473,2.72483 -2.06815,1.75 -2.06814,1.75 z m -81.185783,-8.1959 -2.622253,0.30409 -0.627747,-1.63588 L 78,283.83643 V 277.91821 272 H 68.954545 59.909091 L 57.454545,269.54545 55,267.09091 V 265.54545 264 H 50.5 46 v 1.92742 1.92742 L 43.365141,269.92742 40.730283,272 H 30.819687 20.909091 L 18.454545,269.54545 16,267.09091 V 256.54545 246 l 2.056969,-2.05697 2.056969,-2.05697 3.679801,0.30697 3.6798,0.30697 2.013231,3.21148 2.01323,3.21148 3.75,0.0385 L 39,249 l 0.01531,-2.25 0.01531,-2.25 0.847777,-1.33749 0.847777,-1.33749 2.38691,0.33749 L 45.5,242.5 l 0.29381,7.25 0.293809,7.25 h 4.236953 4.236953 l 1.128727,-2.99034 1.128726,-2.99034 2.655611,-1.00966 L 62.130199,249 H 74.001741 85.873283 L 86.186642,245.75 86.5,242.5 h 3 3 l 0.297931,4.05421 0.297931,4.0542 -2.120511,2.6958 L 88.85484,256 H 86.92742 85 v 4.5 4.5 h 2.877555 2.877556 l 1.314456,1.58382 1.314455,1.58383 -1.04286,1.66617 -1.04286,1.66618 -3.106556,0.31018 -3.106556,0.31018 -0.292595,7.18982 L 84.5,286.5 Z M 66,265 h 4 v -4.5 -4.5 h -4 -4 v 4.5 4.5 z m 117.41249,21.79826 -2.0875,0.29825 -1.17975,-1.4215 -1.17975,-1.42151 0.59458,-1.54943 0.59457,-1.54943 1.54943,-0.59457 1.54943,-0.59458 1.42151,1.17975 1.4215,1.17975 -0.29825,2.0875 L 185.5,286.5 Z m 140,0 -2.0875,0.29825 -1.17975,-1.4215 -1.17975,-1.42151 0.59458,-1.54943 0.59457,-1.54943 1.54943,-0.59457 1.54943,-0.59458 1.42151,1.17975 1.4215,1.17975 -0.29825,2.0875 L 325.5,286.5 Z m -184.12636,-7.10981 -3.86911,0.51895 -1.29109,-1.55566 -1.29108,-1.55566 0.34076,-1.79804 0.34077,-1.79804 3.24181,-0.31336 L 140,272.87328 v -4.32823 -4.32823 l -2.47114,-0.62022 -2.47113,-0.62021 -1.08878,-2.0344 -1.08877,-2.0344 0.30991,-3.19075 0.30991,-3.19076 3.21148,-2.01304 3.21148,-2.01304 0.0385,-15.68664 0.0385,-15.68664 -3.24181,-0.31336 -3.24181,-0.31336 -0.34077,-1.79804 -0.34076,-1.79804 1.29108,-1.55566 1.29109,-1.55566 3.86911,0.51895 3.8691,0.51896 1.92239,1.73973 1.92238,1.73974 V 220.15499 226 h 4.28076 4.28076 l 1.15618,-3.06306 1.15618,-3.06306 3.06306,-1.15618 3.06306,-1.15618 V 214.98076 212.4 l 1.2,-1.2 1.2,-1.2 h 0.72857 0.72857 l 1.57143,1.57143 1.57143,1.57143 V 215.57143 218 h 4.86514 4.86514 l 2.63486,2.07258 2.63486,2.07258 v 1.86406 1.86406 l 3.14915,0.31336 3.14915,0.31336 1.04286,1.66618 1.04286,1.66617 -1.31445,1.58383 L 191.75507,233 h -3.65505 -3.65505 l -2.10824,-1.47667 -2.10824,-1.47667 -0.63332,-2.52333 L 178.9619,225 h -7.76171 -7.76171 l -1.15618,3.06306 -1.15618,3.06306 -2.9039,1.0961 -2.9039,1.0961 -1.08174,2.86587 -1.08175,2.86587 -3.07741,1.0728 L 147,241.19565 v 17.24719 17.24718 l -1.92238,1.73974 -1.92239,1.73973 z M 175,279.96937 h -0.5 l -1.33749,-0.84777 -1.33749,-0.84778 0.33749,-2.38691 L 172.5,273.5 h 2.5 2.5 l 0.33749,2.38691 0.33749,2.38691 -1.33749,0.84778 -1.33749,0.84777 z m 17.22418,-1.08935 -1.77583,0.9504 -1.72417,-0.9649 L 187,277.90062 v -2.93126 -2.93126 l -2.53491,-0.63622 -2.53491,-0.63622 -1.46509,-2.83317 L 179,265.09932 v -7.90976 -7.90975 l -5.75,-0.59234 -5.75,-0.59233 -1.75,-2.15835 -1.75,-2.15836 v -4.4206 -4.4206 l 1.63592,-0.62776 1.63593,-0.62776 1.61407,1.01 1.61408,1.01001 0.30345,2.51476 0.30346,2.51475 5.69654,0.58681 5.69655,0.58682 1.75,2.15835 1.75,2.15836 v 1.29139 1.29139 l 3.07742,1.07279 3.07741,1.0728 1.14182,3.02503 L 194.43848,257 H 198.71924 203 v -8 -8 h -2.87756 -2.87755 l -1.20502,-1.45196 -1.20502,-1.45196 0.34393,-1.79804 0.34393,-1.79804 3.48864,-0.5 3.48865,-0.5 v -8 -8 l -3.48865,-0.5 -3.48864,-0.5 -0.34393,-1.79804 -0.34393,-1.79804 1.20502,-1.45196 L 197.24489,210 H 203.62244 210 v -7.93664 -7.93664 L 206.75,193.81336 203.5,193.5 v -3 -3 l 11.18904,-0.28218 11.18904,-0.28218 0.31096,-3.11697 0.31096,-3.11697 1.66618,-1.04286 1.66617,-1.04286 1.58383,1.31445 1.58382,1.31446 v 6.83375 6.83374 l 7.25,0.29381 7.25,0.29381 0.33749,2.38691 0.33749,2.38691 -1.33749,0.84778 -1.33749,0.84777 -6.25,0.0153 L 233,202 v 4 4 h 10.37756 10.37755 l 1.20502,1.45196 1.20502,1.45196 -0.34076,1.79804 -0.34077,1.79804 -3.24181,0.31336 L 249,217.12672 v 2.24551 2.24551 l -1.3161,1.79987 -1.31609,1.79987 -1.93391,-0.36936 -1.9339,-0.36936 -0.92637,-3.73938 L 240.64727,217 H 236.82363 233 v 4.28076 4.28076 l 2.99034,1.12873 2.99034,1.12873 1.00966,2.65561 L 241,233.1302 V 237.0651 241 h 8 8 v -9.04545 -9.04546 l 2.45455,-2.45454 L 261.90909,218 H 263.45455 265 v -7.93664 -7.93664 l -3.14915,-0.31336 -3.14915,-0.31336 -1.04286,-1.66618 -1.04286,-1.66617 1.31445,-1.58383 L 259.24489,195 h 2.8142 2.81419 l 0.31336,-3.14915 0.31336,-3.14915 1.66618,-1.04286 1.66617,-1.04286 1.58383,1.31445 1.58382,1.31446 v 15.42301 15.42301 l -2.45455,2.45454 L 267.09091,225 H 265.54545 264 v 4.5 4.5 h 1.92742 1.92742 l 2.07258,2.63486 2.07258,2.63486 v 1.31809 1.31808 l -1.13784,2.49728 -1.13783,2.49728 -2.86217,0.99776 L 264,248.89596 v 5.09748 5.09747 l -2.45455,2.45454 L 259.09091,264 h -3.92301 -3.92301 l -1.31446,-1.58382 -1.31445,-1.58383 1.04286,-1.66617 1.04286,-1.66618 3.14915,-0.31336 L 257,256.87328 V 252.93664 249 h -3.7932 -3.79321 l -0.95679,3.24792 -0.9568,3.24791 -1.9339,0.36083 -1.93391,0.36082 -1.31609,-1.79987 L 241,252.61774 v -2.23932 -2.23932 l -2.25,-0.31955 -2.25,-0.31955 -1.5,-3.26393 -1.5,-3.26393 -2.27333,-0.60033 -2.27333,-0.60034 -1.47667,-2.10824 L 226,235.55499 v -5.05826 -5.05825 l -3.06306,-1.15618 -3.06306,-1.15618 -1.15618,-3.06306 L 217.56152,217 H 213.78076 210 v 4.39159 4.39159 l 2.47114,0.62022 2.47113,0.62021 1.08878,2.0344 1.08877,2.0344 -0.30991,3.19075 -0.30991,3.19076 -3.21148,2.01304 -3.21148,2.01304 -0.0385,11.68664 -0.0385,11.68664 3.25,0.31336 3.25,0.31336 0.33749,2.38691 0.33749,2.38691 -1.33749,0.84778 -1.33749,0.84777 -3.11514,0.0153 -3.11514,0.0153 -2.63486,-2.07258 -2.63486,-2.07258 v -1.92742 -1.92742 h -4.5 -4.5 v 6.96482 6.96481 l -1.77582,0.95039 z M 222.16667,203 H 226 v -4.5 -4.5 h -4.5 -4.5 v 3.83333 3.83334 l 0.66667,0.66666 0.66666,0.66667 z m 26.96089,76.98469 -4.62756,-0.0153 -1.33749,-0.84777 -1.33749,-0.84778 0.33749,-2.38691 L 242.5,273.5 h 6.4863 6.48631 l 0.34627,1.79804 0.34627,1.79804 -1.20502,1.45196 -1.20502,1.45196 -4.62755,-0.0153 z M 315,271.96937 h -0.5 l -1.5,-0.94958 -1.5,-0.94958 v -11.93128 -11.93128 l 1.81537,-2.00479 1.81537,-2.0048 3.42061,-0.64172 3.42062,-0.64171 2.0747,1.11035 2.0747,1.11034 -0.31069,2.18234 L 325.5,247.5 l -3.16423,0.93266 -3.16422,0.93267 -0.33578,10.35532 -0.33577,10.35532 -1.5,0.9467 -1.5,0.9467 z m -147.64328,-8.17719 -1.93902,0.29219 -0.70885,-0.70885 L 164,262.66667 v -2.26595 -2.26594 l 2.11151,-0.67017 2.1115,-0.67017 1.62155,1.62154 1.62154,1.62155 -1.08518,1.73123 -1.08518,1.73124 z m 55.1316,-0.004 -2.01168,0.28832 -1.23832,-1.23832 L 218,261.6 l 0.0153,-8.55 0.0153,-8.55 0.84777,-1.33749 0.84778,-1.33749 2.38691,0.33749 2.38691,0.33749 0.31336,3.25 0.31336,3.25 h 2.81419 2.8142 l 1.20506,1.45201 1.20507,1.45201 -0.65001,2.04799 L 231.86519,256 h -3.37224 -3.37225 l -0.31036,3.75 -0.31037,3.75 -2.01168,0.28832 z M 330.57756,264 H 329.4 l -1.2,-1.2 -1.2,-1.2 v -5.17756 -5.17755 l 1.58382,-1.31446 1.58383,-1.31445 1.66617,1.045 1.66618,1.04501 0.30507,5.22818 0.30508,5.22818 -1.17752,1.41883 L 331.75511,264 Z m -171.17633,-8 h -2.464 l -0.5756,-1.5 -0.57561,-1.5 0.58431,-1.52268 0.58431,-1.52268 1.60022,-0.61407 1.60022,-0.61406 1.52524,1.52524 1.52524,1.52524 -0.67017,2.1115 L 161.86522,256 Z m 116.64299,0 h -1.71089 L 273.66667,255.33333 273,254.66667 v -2.22635 -2.22634 l 1.5,-0.57561 1.5,-0.5756 1.42268,0.54593 1.42268,0.54594 0.59457,1.54943 0.59458,1.54943 -1.1397,1.37325 -1.1397,1.37325 z m 16.00578,-15.03041 -0.55,-0.0304 -1.75,-1.01928 -1.75,-1.01928 v -2.8419 -2.8419 l -2.48181,-0.6229 -2.48181,-0.62289 -1.51819,-2.93586 L 280,226.09933 V 211.67211 197.2449 l 1.45196,-1.20502 1.45196,-1.20502 1.79804,0.34393 1.79804,0.34393 0.5,3.48864 0.5,3.48865 3.48865,0.5 3.48864,0.5 0.3701,1.9339 0.37009,1.93391 -1.79987,1.31609 -1.79987,1.3161 H 289.30887 287 v 8 8 h 4.5 4.5 v -6.96482 -6.96481 l 1.77582,-0.95039 1.77583,-0.9504 1.72417,0.9649 1.72418,0.9649 v 2.85248 2.85249 l 2.83302,0.9876 2.83302,0.98759 1.26509,3.05419 1.26508,3.05419 3.1519,0.30604 3.15189,0.30604 v 3 3 l -3.25,0.31336 -3.25,0.31336 v 2.36521 2.36521 l -1.57143,1.57143 -1.57143,1.57143 H 307.12857 306.4 l -1.2,-1.2 -1.2,-1.2 v -2.8 -2.8 h -4.5 -4.5 v 2.8 2.8 l -1.2,1.2 -1.2,1.2 -0.55,-0.0304 z M 19.5,233 H 18.4 L 17.2,231.8 16,230.6 V 214.97431 199.34863 L 18.314451,197.17431 20.628902,195 H 25.814451 31 v -8 -8 H 26.0651 21.130199 L 18.49576,177.99839 15.861321,176.99678 16.18066,174.74839 16.5,172.5 20.25,171.57363 24,170.64727 v -2.85502 -2.85502 l 1.635923,-0.62776 1.635923,-0.62776 1.614077,1.01 1.614077,1.01001 0.316422,2.64914 L 31.132845,171 34.816422,170.9615 38.5,170.923 l 2.01563,-3.21148 2.01563,-3.21148 6.23437,-0.29772 L 55,163.90461 v -4.38893 -4.38892 l -3.149151,-0.31336 -3.149151,-0.31336 -1.04286,-1.66618 -1.04286,-1.66617 1.314455,-1.58383 1.314456,-1.58382 h 2.658318 2.658318 l 1.128727,-2.99034 1.128726,-2.99034 2.840511,-1.08941 2.840511,-1.0894 9.339465,0.32974 9.339466,0.32975 1.910534,2.36078 L 85,145.22161 v 4.4206 4.4206 l -1.635923,0.62776 -1.635923,0.62776 L 80.114077,154.3083 78.5,153.2983 78.186642,150.14915 77.873283,147 H 69.936642 62 v 4.5 4.5 h 2.964816 2.964816 l 0.950392,1.77582 0.950392,1.77583 -0.964898,1.72417 L 67.90062,163 H 65.048135 62.19565 l -0.987596,2.83302 -0.987597,2.83302 -3.110228,1.2883 L 54,171.24264 V 175.12132 179 h 2.30887 2.308871 l 1.81368,1.3262 1.813681,1.32619 -0.689939,2.17381 L 60.865225,186 h -3.369254 -3.369254 l -0.313359,3.14915 -0.313358,3.14915 -1.666177,1.04286 -1.666178,1.04286 -1.583822,-1.31445 L 47,191.75511 V 188.87756 186 h -4 -4 v 11.93358 11.93358 l 2.649138,0.31642 2.649138,0.31642 1.010009,1.61408 1.01001,1.61407 -0.627763,1.63593 L 45.06277,217 H 42.20775 39.352731 L 38.426365,220.75 37.5,224.5 H 35 32.5 L 31.573635,220.75 30.647269,217 H 26.823635 23 v 6.8 6.8 l -1.2,1.2 -1.2,1.2 z M 27,210 h 4 v -4 -4 h -4 -4 v 4 4 z m 15.372445,22.98469 -1.127556,0.0153 -1.314456,-1.58382 -1.314455,-1.58383 1.050997,-1.66617 1.050998,-1.66618 H 43.108986 45.5 l 0.337492,2.38691 0.337492,2.38691 -1.337492,0.84778 -1.337492,0.84777 -1.127555,0.0153 z M 120.5,233 h -1.1 l -1.2,-1.2 -1.2,-1.2 v -2.8 -2.8 h -2.87756 -2.87755 l -1.19184,-1.43608 -1.19184,-1.43608 1.10458,-2.06392 L 111.07037,218 h 9.34237 9.34237 l 1.31446,1.58382 1.31445,1.58383 -1.04286,1.66617 -1.04286,1.66618 -3.14915,0.31336 L 124,225.12672 v 2.73664 2.73664 l -1.2,1.2 -1.2,1.2 z m 209.92244,0 h -1.17755 l -1.14716,-1.38224 -1.14716,-1.38224 0.27472,-16.76003 0.27471,-16.76004 1.61408,-1.01687 1.61407,-1.01687 1.63593,0.62776 L 334,195.93723 V 213.26862 230.6 l -1.2,1.2 -1.2,1.2 z m -225.10478,-16.18932 -2.18234,0.31069 -1.06766,-1.99494 L 101,213.13148 V 207.56574 202 l -2.25,-0.0153 -2.25,-0.0153 -1.337492,-0.84777 -1.337492,-0.84778 0.337492,-2.38691 L 94.5,195.5 l 3.25,-0.31336 3.25,-0.31336 v -8.36709 -8.36709 L 98.75,177.81955 96.5,177.5 95,174.27164 93.5,171.04328 90.872445,171.02164 88.244889,171 l -1.20502,-1.45196 -1.20502,-1.45196 0.343929,-1.79804 L 86.522707,164.5 90.011353,164 93.5,163.5 93.787106,153.05775 94.074211,142.61551 95.15955,141.30775 96.244889,140 h 0.806127 0.806127 l 1.571428,1.57143 L 101,143.14286 V 145.57143 148 h 4 4 v -2.42857 -2.42857 l 1.57143,-1.57143 L 112.14286,140 h 0.72857 0.72857 l 1.2,1.2 1.2,1.2 v 4.3 4.3 l -2,2 -2,2 h -5.5 -5.5 v 8 8 l 3.75,-0.0385 3.75,-0.0385 2.02067,-3.21148 2.02067,-3.21148 h 5.46563 5.46564 l 0.34627,1.79804 0.34627,1.79804 -1.20502,1.45196 -1.20502,1.45196 H 118.87756 116 v 5.5 5.5 l -2,2 -2,2 h -1.5 -1.5 v 8.5 8.5 h 3.03138 3.03139 l 0.62776,1.63592 0.62776,1.63593 -1.01,1.61407 -1.01001,1.61408 -2.45578,0.29776 -2.45579,0.29777 -0.94335,3.20223 L 107.5,216.5 Z m 210.14119,-0.0185 -2.04115,0.29219 -0.70885,-0.70885 L 312,215.66667 v -2.22635 -2.22634 l 1.5,-0.57561 1.5,-0.5756 1.5541,0.59636 1.55409,0.59636 -0.30409,2.62226 L 317.5,216.5 Z m -162.23467,-7.91216 -1.77583,0.9504 -1.72417,-0.9649 L 148,207.90062 V 204.95031 202 h -2.96482 -2.96481 l -1.10458,-2.06392 -1.10458,-2.06392 1.19184,-1.43608 L 142.24489,195 h 4.20324 4.20324 l 2.17432,2.31445 L 155,199.6289 v 4.15037 4.15036 z m 21.44403,1.04103 -0.16821,-0.0789 -1.21834,-0.49384 -1.21834,-0.49383 -0.64295,-3.42722 -0.64295,-3.42722 -2.13871,-0.0153 -2.13871,-0.0153 -1.33749,-0.84777 -1.33749,-0.84778 0.33749,-2.38691 L 164.5,195.5 l 3.08613,-0.30114 3.08612,-0.30113 0.91388,-3.69887 L 172.5,187.5 h 2.5 2.5 l 0.92637,3.75 0.92636,3.75 h 10.20119 10.20119 l 1.31446,1.58382 1.31445,1.58383 -1.04286,1.66617 -1.04286,1.66618 -3.14915,0.31336 L 194,202.12672 v 2.90145 2.90146 l -1.77582,0.95039 -1.77583,0.9504 -1.72417,-0.9649 L 187,207.90062 V 204.95031 202 h -3.88871 -3.88871 l -0.63849,3.40345 -0.63849,3.40345 -1.55459,0.59655 -1.55458,0.59655 -0.16822,-0.0789 z M 307.12857,210 H 306.4 l -1.2,-1.2 -1.2,-1.2 v -8.22742 -8.22742 l 2.69579,-2.12051 2.6958,-2.12051 4.0542,0.29793 L 317.5,187.5 v 3 3 l -3.25,0.31336 -3.25,0.31336 v 6.36521 6.36521 l -1.57143,1.57143 L 307.85714,210 Z M 123.1679,202 h -3.92301 l -1.31446,-1.58382 -1.31445,-1.58383 1.04286,-1.66617 1.04286,-1.66618 3.14915,-0.31336 L 125,194.87328 v -1.86406 -1.86406 l 2.63486,-2.07258 L 130.26972,187 H 131.63486 133 v -1.92742 -1.92742 l 2.63486,-2.07258 L 138.26972,179 H 151.13486 164 v -4 -4 h -4.54966 -4.54966 l -2.82324,-1.45995 -2.82323,-1.45995 -0.61345,-2.29005 -0.61345,-2.29005 -0.0137,-4.25 L 148,155 h -3.87868 -3.87868 l -1.25847,3.03822 -1.25847,3.03821 -1.79711,0.96179 L 134.13148,163 h -1.93088 -1.93088 L 127.63486,160.92742 125,158.85484 v -2.97287 -2.97288 l 2.45455,-2.45454 L 129.90909,148 H 131.45455 133 v -3.93664 -3.93664 l -3.14915,-0.31336 -3.14915,-0.31336 -1.01,-1.61408 -1.00999,-1.61407 0.62776,-1.63593 L 125.93723,133 h 4.8764 4.87639 l 1.50299,1.75 1.50299,1.75 0.62932,1.77268 0.62932,1.77268 1.77268,0.62932 1.77268,0.62932 1.75,1.50299 1.75,1.50299 V 146.15499 148 h 4.5 4.5 v -7.93664 -7.93664 l -3.14915,-0.31336 -3.14915,-0.31336 -1.04286,-1.66618 -1.04286,-1.66617 1.33313,-1.60633 1.33313,-1.60632 17.60888,0.2725 17.60888,0.2725 0.33749,2.38691 0.33749,2.38691 -1.33749,0.84778 -1.33749,0.84777 -2.25,0.0153 L 179,132 v 3.93358 3.93358 l 2.64914,0.31642 2.64914,0.31642 1.01001,1.61408 1.01,1.61407 -0.62776,1.63593 L 185.06277,147 h -3.0834 -3.08341 l -1.05316,3.02111 -1.05317,3.02111 -1.82907,0.97889 L 173.13148,155 H 164.06574 155 v 4.5 4.5 h 16 16 v -5.54545 -5.54546 l 2.45455,-2.45454 L 191.90909,148 h 8.01027 8.01027 l 0.95039,1.77582 0.9504,1.77583 -0.9649,1.72417 L 207.90062,155 H 200.95031 194 v 5.38922 5.38921 l -1.91053,2.36079 -1.91054,2.36078 -9.58946,0.34653 L 171,171.19306 v 4.76861 4.76861 l -2.07258,2.63486 L 166.85484,186 h -1.86406 -1.86406 l -0.31336,3.14915 -0.31336,3.14915 -1.66618,1.04286 -1.66617,1.04286 -1.58383,-1.31445 L 156,191.75511 V 188.87756 186 h -7.90217 -7.90218 l -1.07279,3.07742 -1.0728,3.07741 -3.02503,1.14182 L 132,194.43848 v 1.32621 1.32622 l -2.45455,2.45454 L 127.09091,202 Z M 167,140 h 4 v -4 -4 h -4 -4 v 4 4 z M 77.34617,194 H 63.93723 l -0.553188,-1.44159 -0.553189,-1.44158 0.342763,-1.80842 0.342763,-1.80841 3.24181,-0.31336 L 70,186.87328 v -2.36521 -2.36521 l 1.628939,-1.62894 1.628939,-1.62894 1.452848,0.55751 L 76.163575,180 H 76.581787 77 v 3.45619 3.45619 l 7.145232,0.29381 7.145233,0.29381 1.046779,1.66618 1.046778,1.66617 -1.314455,1.58383 L 90.755111,194 Z m 176.14215,-0.21168 -2.01168,0.28832 -1.23832,-1.23832 L 249,191.6 v -1.17756 -1.17755 l 1.45201,-1.20506 1.45201,-1.20507 2.10613,0.66846 2.10613,0.66846 -0.30814,2.66416 L 255.5,193.5 Z m 39,0 -2.01168,0.28832 -1.23832,-1.23832 L 288,191.6 l 0.0136,-2.55 0.0137,-2.55 0.61345,-2.29005 0.61345,-2.29005 2.82323,-1.45995 L 294.90067,179 h 2.92722 2.92721 l 1.20506,1.45201 1.20507,1.45201 -0.65001,2.04799 L 301.86521,186 h -3.37224 -3.37225 l -0.31036,3.75 -0.31037,3.75 -2.01168,0.28832 z m -101.65248,-7.98018 -2.66416,0.30814 -0.68862,-2.16965 -0.68862,-2.16964 1.62154,-1.62155 1.62155,-1.62154 1.73123,1.09204 1.73124,1.09203 v 2.39102 2.39101 z m 54.62301,-0.016 -2.04115,0.29219 -0.70885,-0.70885 L 242,184.66663 v -2.22635 -2.22634 l 1.5,-0.57561 1.5,-0.5756 1.5541,0.59636 1.55409,0.59636 -0.30409,2.62226 -0.3041,2.62225 z m 15.4189,0.0119 -2.62226,0.30409 -0.62774,-1.63588 L 257,182.83637 v -1.80693 -1.80692 l -3.40345,-0.63849 -3.40345,-0.63849 -0.56516,-1.4728 -0.56517,-1.4728 0.55215,-1.43889 0.55216,-1.4389 2.81287,-0.61781 2.81287,-0.61781 3.568,1.49081 3.568,1.4908 0.60927,2.42753 0.60927,2.42752 -0.32368,3.38838 L 263.5,185.5 l -2.62225,0.3041 z M 311,178.48556 l -3.5,0.62603 -1.85874,-1.37189 -1.85874,-1.37189 0.36082,-1.93391 0.36083,-1.9339 3.24791,-0.9568 L 311,170.58641 v -4.72811 -4.7281 l 0.97525,-2.5651 L 312.9505,156 H 315 h 2.0495 l 1.07032,2.75 1.07031,2.75 -0.48926,6.36641 -0.48925,6.36642 -1.85581,1.81335 -1.85581,1.81335 z M 66.361626,178 H 63.93723 l -0.575604,-1.5 -0.575604,-1.5 0.575604,-1.5 0.575604,-1.5 h 2.424396 2.424396 l 0.575604,1.5 0.575604,1.5 -0.575604,1.5 -0.575604,1.5 z m 15.516121,-0.1959 -2.622253,0.30409 L 78.659132,176.5541 78.06277,175 l 0.596362,-1.5541 0.596362,-1.55409 2.622253,0.30409 L 84.5,172.5 v 2.5 2.5 z M 198.36163,178 h -2.4244 l -0.5756,-1.5 -0.57561,-1.5 0.57561,-1.5 0.5756,-1.5 h 2.4244 2.42439 l 0.57561,1.5 0.5756,1.5 -0.5756,1.5 -0.57561,1.5 z m 39.19805,0 h -2.22635 L 234.66667,177.33333 234,176.66667 V 173.83333 171 h -6.30887 -6.30887 l -1.81368,-1.3262 -1.81368,-1.32619 0.68994,-2.17381 L 219.13478,164 H 222.56739 226 v -4.5 -4.5 h -1.54545 -1.54546 L 220.45455,152.54545 218,150.09091 v -4.01027 -4.01027 l 2.06392,-1.10458 2.06392,-1.10458 1.43608,1.19184 L 225,142.24489 V 145.12244 148 h 1.54545 1.54546 l 2.45454,2.45455 L 233,152.90909 V 158.45455 164 h 1.92742 1.92742 l 2.07258,2.63486 2.07258,2.63486 v 2.78335 2.78336 l -0.60699,1.58178 L 239.78602,178 Z m 46.31807,-0.1959 -2.62226,0.30409 -0.59636,-1.55409 -0.59636,-1.5541 0.59636,-1.5541 0.59636,-1.55409 2.62226,0.30409 L 286.5,172.5 v 2.5 2.5 z M 206.12857,171 H 205.4 l -1.2,-1.2 -1.2,-1.2 v -1.83138 -1.83139 l 1.63592,-0.62776 1.63593,-0.62776 1.55455,0.98059 1.55456,0.98059 0.35416,1.06248 0.35417,1.06249 -1.61608,1.61607 L 206.85714,171 Z m 65.92245,0 h -4.80613 l -1.20502,-1.45196 -1.20502,-1.45196 0.34229,-1.79804 0.3423,-1.79804 5.82465,-0.30242 5.82466,-0.30242 1.41562,1.17486 1.41563,1.17487 v 0.80613 0.80612 l -1.57143,1.57143 L 276.85714,171 Z M 299.5,171 h -1.1 l -1.2,-1.2 -1.2,-1.2 v -2.8 -2.8 h -6.96482 -6.96481 l -0.95039,-1.77582 -0.9504,-1.77583 0.9649,-1.72417 L 282.09938,156 H 289.04969 296 v -1.54545 -1.54546 l 2.45455,-2.45454 L 300.90909,148 h 4.01027 4.01027 l 1.10458,2.06392 1.10458,2.06392 -1.19184,1.43608 L 308.75511,155 H 305.87756 303 v 6.8 6.8 l -1.2,1.2 -1.2,1.2 z m 31.07756,0 H 329.4 l -1.2,-1.2 -1.2,-1.2 v -5.17756 -5.17755 l 1.58382,-1.31446 1.58383,-1.31445 1.66617,1.045 1.66618,1.04501 0.30507,5.22818 0.30508,5.22818 -1.17752,1.41883 L 331.75511,171 Z m -295.332031,-8.17986 -2.254471,0.32013 -0.580102,-1.51172 -0.580103,-1.51172 0.348269,-1.80842 L 32.52739,156.5 H 35.013695 37.5 v 3 3 z m 217.549921,0.14806 -6.29545,-0.0318 -1.71069,-1.29969 -1.71068,-1.29969 -1.08061,-2.84223 -1.08062,-2.84223 0.60241,-2.74273 0.6024,-2.74274 1.4389,-0.55216 1.43889,-0.55215 1.4728,0.56517 1.4728,0.56516 0.63849,3.40345 0.63849,3.40345 H 253.11129 257 v -4.91821 -4.91822 l 0.62118,-1.61877 0.62118,-1.61877 2.82916,-1.46302 2.82916,-1.46301 H 268.45034 273 v -8 -8 h -4.43664 -4.43664 l -0.31336,3.14915 -0.31336,3.14915 -1.66618,1.04286 -1.66617,1.04286 -1.58383,-1.31445 -1.58382,-1.31446 -0.0216,-2.62755 -0.0216,-2.62756 -3.2144,-1.5 -3.2144,-1.5 -0.88929,-3.18259 -0.88928,-3.18259 0.61669,-2.45711 0.6167,-2.45711 1.63538,-0.62755 1.63538,-0.62756 1.37325,1.1397 1.37325,1.1397 v 2.87755 2.87756 h 4.5 4.5 v -3.82363 -3.82364 l -3.75,-0.92636 -3.75,-0.92637 -0.31934,-2.24839 -0.31934,-2.24839 2.6668,-1.01391 2.66679,-1.01391 3.7396,1.00697 3.7396,1.00697 1.16295,2.55238 1.16294,2.55239 v 4.45294 4.45295 h 4 4 l -0.0385,-7.75 -0.0385,-7.75 -3.21148,-2.020669 -3.21148,-2.020669 V 91.993036 86.5274 l 1.9339,-0.372436 1.93391,-0.372435 1.31609,1.79987 1.3161,1.79987 v 2.308871 2.30887 h 1.5 1.5 l 2,2 2,2 v 9.5 9.5 h 5.54545 5.54546 l 2.45454,2.45455 2.45455,2.45454 v 3.92301 3.92301 l -1.58382,1.31446 -1.58383,1.31445 -1.66617,-1.04286 L 296.5,130.2983 296.18664,127.14915 295.87328,124 h -4.36709 -4.36709 l -0.31955,2.23426 -0.31955,2.23426 -3.14379,2.01574 -3.14378,2.01574 -0.35622,9.33947 -0.35621,9.33946 -2.36078,1.91054 L 274.77843,155 H 269.38922 264 v 1.54545 1.54546 l -2.45455,2.45454 L 259.09091,163 Z M 22.84617,155 h -5.90894 l -0.627762,-1.63592 -0.627763,-1.63593 1.012657,-1.61407 1.012657,-1.61408 5.585572,-0.29809 5.585572,-0.29808 1.130312,2.11201 1.130313,2.112 -1.191839,1.43608 L 28.755111,155 Z m 4.282401,-15 H 26.4 l -1.2,-1.2 -1.2,-1.2 v -2.58076 -2.58076 l -2.978093,-1.12411 -2.978094,-1.1241 -1.200779,-2.63543 -1.200779,-2.63542 0.942075,-2.67878 0.942075,-2.67877 2.668724,-1.49792 2.668725,-1.49791 2.818073,0.97568 2.818073,0.97569 1.408317,3.18974 1.408316,3.18975 3.091684,0.30155 L 37.5,125.5 l 0.337492,2.38691 0.337492,2.38691 -1.337492,0.84778 L 35.5,131.96937 33.25,131.98469 31,132 v 2.42857 2.42857 L 29.428571,138.42857 27.857143,140 Z m 16.166058,-0.26488 -1.062486,0.35417 -1.673582,-1.67359 -1.673582,-1.67358 0.557511,-1.45285 L 40,133.83643 V 133.41821 133 h 2.531385 2.531385 l 0.627762,1.63592 0.627763,1.63593 -0.980591,1.55455 -0.98059,1.55456 z m 47.929548,-0.8551 -1.775823,0.9504 -1.724177,-0.9649 L 86,137.90062 v -4.276 -4.27599 L 88.314451,127.17431 90.628902,125 h 4.063105 4.063104 l 1.191838,1.43608 1.191841,1.43608 -1.10458,2.06392 L 98.929632,132 H 95.964816 93 v 2.96482 2.96481 z m 100.974643,0.0136 -1.92254,1.02892 -1.74688,-1.27735 -1.74688,-1.27735 0.37243,-1.93391 0.37244,-1.9339 h 2.98631 2.9863 l 0.31068,2.18234 0.31069,2.18234 z m 19.30118,0.41542 -2,0.54558 -2.03472,-0.81543 -2.03472,-0.81544 -1.17516,-1.41598 -1.17516,-1.41599 -0.29012,-9.44587 L 202.5,116.5 l -3.48865,-0.5 -3.48864,-0.5 -0.34393,-1.79804 -0.34393,-1.79804 1.20502,-1.45196 L 197.24489,109 h 2.8142 2.81419 l 0.31336,-3.25 0.31336,-3.25 2.38691,-0.33749 2.38691,-0.33749 0.84778,1.33749 0.84777,1.33749 0.0153,6.25 0.0153,6.25 h 1.32569 1.32568 l 2.0253,2.25 2.02531,2.25 0.59167,1.68237 0.59167,1.68236 3.29915,0.31764 3.29915,0.31763 0.34077,1.79804 0.34076,1.79804 -1.20502,1.45196 L 222.75508,132 h -2.87755 -2.87756 v 1.84501 1.84501 l -1.75,1.53671 -1.75,1.53671 -2,0.54557 z m 19.69882,-0.41542 -1.92254,1.02892 -1.74688,-1.27735 -1.74688,-1.27735 0.37243,-1.93391 0.37244,-1.9339 h 2.98631 2.9863 l 0.31068,2.18234 0.31069,2.18234 z m 79.15644,0.78559 -3.93824,0.52822 -1.29109,-1.55566 -1.29108,-1.55566 0.34076,-1.79804 0.34077,-1.79804 3.24181,-0.31336 L 311,132.87331 v -5.37154 -5.37154 l 0.97525,-2.5651 0.97525,-2.5651 H 315 h 2.0495 l 1.07032,2.75 1.07031,2.75 -0.48926,6.36641 -0.48925,6.36642 -1.95906,1.95906 -1.95906,1.95906 z m 21.86892,-0.79916 -1.77583,0.9504 -1.72417,-0.9649 L 327,137.90062 V 126.95031 116 h -2.87756 -2.87755 l -1.1397,-1.37325 -1.1397,-1.37325 0.60964,-1.58868 0.60963,-1.58869 1.99456,-0.63304 1.99456,-0.63305 3.38432,0.6349 3.38432,0.6349 1.52874,2.18259 1.52874,2.18258 v 11.74231 11.74231 l -1.77582,0.95039 z M 65.819687,132 H 59.909091 L 57.454545,129.54545 55,127.09091 v -3.92301 -3.92301 l 1.583823,-1.31446 1.583822,-1.31445 1.666178,1.04286 L 61.5,118.7017 61.813358,121.85085 62.126717,125 h 3.751429 3.751429 l 1.656514,-3.47375 1.656514,-3.47374 2.528698,-0.63466 L 78,116.78318 v -3.83702 -3.83703 L 75.279265,107.80457 72.558529,106.5 71.318272,104 70.078016,101.5 63.391698,101 56.705381,100.5 55.693543,98.885923 54.681705,97.271846 55.309468,95.635923 55.93723,94 H 62.968615 70 V 89.563358 85.126717 L 66.75,84.813358 63.5,84.5 63.162508,82.11309 62.825016,79.72618 64.162508,78.878403 65.5,78.030626 68.615141,78.015313 71.730283,78 74.365141,80.07258 77,82.14516 v 9.414 9.414 l 3.464409,1.44752 3.464408,1.44752 0.644,2.5659 0.643999,2.5659 h 2.769147 2.769148 l 1.205063,1.45201 1.205063,1.45201 -0.650006,2.04799 L 91.865225,116 H 88.432612 85 v 1.82569 1.82568 L 82.685549,121.82569 80.371098,124 H 78.685549 77 v 1.92742 1.92742 L 74.365141,129.92742 71.730283,132 Z m 46.465493,-0.0153 -1.21481,0.0153 -1.10458,-2.06392 -1.10458,-2.06392 1.23189,-1.48434 1.23189,-1.48433 2.0875,0.29825 2.08751,0.29826 0.33749,2.38691 0.33749,2.38691 -1.33749,0.84778 -1.33749,0.84777 -1.21482,0.0153 z M 237.71482,131.9211 236.5,131.8422 235.25,131.33781 234,130.83342 V 118.63926 106.4451 l 1.47554,-2.10662 1.47554,-2.10663 3.51044,-0.65856 3.51045,-0.65857 2.0747,1.11035 2.0747,1.11034 -0.31069,2.18234 L 247.5,107.5 l -3.25,0.9568 -3.25,0.95679 v 9.35895 9.35894 l -1.03518,1.93426 L 238.92963,132 Z M 124.5,124 h -2.59091 L 119.45455,121.54545 117,119.09091 v -2.32295 -2.32295 l 1.47667,-2.10824 1.47667,-2.10824 2.46021,-0.61748 2.46021,-0.61747 0.31312,-3.24679 L 125.5,102.5 l 2.38691,-0.33749 2.38691,-0.33749 0.84778,1.33749 0.84777,1.33749 0.0153,7.29545 0.0153,7.29546 -2.45455,2.45454 L 127.09091,124 Z M 66.044222,116 H 64.333333 L 63.666667,115.33333 63,114.66667 v -2.22635 -2.22634 l 1.5,-0.57561 1.5,-0.5756 1.422681,0.54593 1.422681,0.54594 0.594572,1.54943 0.594572,1.54943 -1.139698,1.37325 L 67.755111,116 Z m 92.823168,0 h -9.73261 l -0.68994,-2.1738 -0.68994,-2.17381 1.81368,-1.32619 1.81368,-1.3262 h 8.23744 8.23744 l 1.57143,1.57143 1.57143,1.57143 v 0.72857 0.72857 l -1.2,1.2 -1.2,1.2 z M 32.815741,108.96086 23.5,108.92172 20.284845,107.52378 17.069691,106.12585 16.461167,103.7013 15.852643,101.27675 16.176321,97.888373 16.5,94.5 18.88691,94.162508 21.27382,93.825016 22.121597,95.162508 22.969374,96.5 22.984687,98.75 23,101 h 9.565741 9.565742 l 1.934258,1.03518 L 46,103.07037 V 105 106.92963 L 44.065741,107.96482 42.131483,109 Z M 97.559678,108 H 95.333333 L 94.666667,107.33333 94,106.66667 V 102.33333 98 l 2,-2 2,-2 h 12.53138 12.53139 l 0.62776,1.635923 0.62776,1.635923 -1.00999,1.614077 -1.01,1.614077 -3.09019,0.30896 -3.09019,0.30896 -0.30896,3.19104 L 115.5,107.5 l -2.38691,0.33749 -2.38691,0.33749 -0.84778,-1.33749 -0.84777,-1.33749 -0.0153,-2.25 L 109,101 h -4 -4 v 1.91821 1.91822 l -0.60699,1.58178 L 99.786022,108 Z m 77.496942,0 h -1.98625 L 172.03518,106.06574 171,104.13148 170.96148,102.81574 170.92296,101.5 167.71148,99.48426 164.5,97.468521 164.18045,95.23426 163.8609,93 H 155.43045 147 v 1.92742 1.92742 L 144.36514,98.92742 141.73028,101 H 140 138.26972 L 135.63486,98.92742 133,96.85484 v -8.860032 -8.860033 l 2.1738,-0.689938 2.17381,-0.689939 1.32619,1.813681 1.3262,1.81368 V 83.69113 86 h 4 4 V 81.5 77 h -1.84501 -1.84501 L 142.40499,74.897 140.5,72.794001 140.15347,63.397 139.80694,54 h -12.68096 -12.68097 l -2.10824,-1.476671 -2.10824,-1.476671 -0.61748,-2.46021 -0.61747,-2.46021 -3.24679,-0.313119 L 102.5,45.5 l -0.33749,-2.38691 -0.33749,-2.38691 1.33749,-0.847777 1.33749,-0.847777 3.11514,-0.01531 3.11514,-0.01531 2.63486,2.07258 2.63486,2.07258 v 1.92742 1.92742 h 8.5 8.5 v -1.92742 -1.92742 l 2.63486,-2.07258 L 138.26972,39 H 140 h 1.73028 l 2.63486,2.07258 L 147,43.14516 V 45.07258 47 h 6.87756 6.87755 l 1.31446,1.583823 1.31445,1.583822 -1.04286,1.666178 -1.04286,1.666177 -2.94817,0.298369 -2.94817,0.298369 -1.13792,3.014692 -1.13792,3.014692 -3.06306,1.156177 L 147,62.438475 v 3.682937 3.682938 l 3.07742,1.072793 3.07741,1.072792 1.14182,3.025033 L 155.43848,78 H 159.71924 164 v -2.8 -2.8 l 1.2,-1.2 1.2,-1.2 h 0.72857 0.72857 l 1.57143,1.571429 1.57143,1.571428 0.0216,10.178572 0.0216,10.178571 3.19218,1.5 3.19217,1.5 0.8626,3.434571 0.86261,3.434569 -1.05498,2.31543 L 177.0428,108 h -1.98626 z m 15.68769,-0.18303 -2.75568,0.31697 -0.6013,-1.56697 -0.60131,-1.56697 0.60131,-1.56697 0.6013,-1.56697 2.75568,0.31697 L 193.5,102.5 v 2.5 2.5 z m 31.13344,-0.0129 -2.62226,0.30409 -0.62774,-1.63588 L 218,104.8364 v -2.78336 -2.783353 L 220.07258,96.634829 222.14516,94 H 224.07258 226 V 92.454545 90.909091 L 228.45455,88.454545 230.90909,86 h 4.93416 4.93417 l 0.63849,-3.403449 0.63849,-3.403449 1.4728,-0.565166 1.4728,-0.565166 1.4728,0.565166 1.4728,0.565166 0.63036,3.360111 0.63036,3.36011 6.54245,0.293339 6.54244,0.293338 1.04641,1.666177 1.0464,1.666178 -1.31445,1.583822 L 261.75511,93 h -14.15832 -14.15831 l -1.14183,3.025032 -1.14182,3.025033 -3.01986,1.052725 -3.01985,1.05273 -0.30756,3.17224 L 224.5,107.5 l -2.62225,0.3041 z m 85.48388,0.1959 h -2.4244 l -0.5756,-1.5 -0.57561,-1.5 0.57561,-1.5 0.5756,-1.5 h 2.4244 2.42439 l 0.57561,1.5 0.5756,1.5 -0.5756,1.5 -0.57561,1.5 z m -109.59589,-7 H 197.4 l -1.2,-1.2 -1.2,-1.2 v -2.75619 -2.756191 l -7.14523,-0.293809 -7.14523,-0.29381 -1.04678,-1.666177 -1.04678,-1.666178 1.31445,-1.583822 L 181.24489,86 h 6.8142 6.81419 l 0.31336,-3.149151 0.31336,-3.149151 1.66618,-1.04286 1.66617,-1.04286 1.58383,1.314455 L 202,80.244889 v 9.342372 9.342371 L 200.06574,99.964816 198.13148,101 h -0.36574 z M 315,100.96937 h -0.5 l -1.33749,-0.84777 -1.33749,-0.84778 0.33749,-2.38691 L 312.5,94.5 h 2.5 2.5 l 0.33749,2.38691 0.33749,2.38691 -1.33749,0.84778 -1.33749,0.84777 z M 27.627555,92.984687 26.5,92.969374 25.162508,92.121597 23.825016,91.27382 24.162508,88.88691 24.5,86.5 h 2.391014 2.391013 l 1.050998,1.666177 1.050997,1.666178 -1.314455,1.583822 L 28.755111,93 Z M 46.767961,93 H 44.445012 L 42.33677,91.523329 40.228527,90.046658 39.593045,87.5147 38.957564,84.982742 40.4614,82.074644 l 1.503836,-2.908098 2.95873,-0.649846 2.958731,-0.649846 2.035733,1.089491 2.035733,1.089492 1.022919,1.91134 L 54,83.868517 v 2.111196 2.111196 L 51.545455,90.545455 49.090909,93 Z m 167.549699,-0.189316 -2.18234,0.310685 -1.02891,-1.922544 -1.02892,-1.922544 1.27735,-1.746881 1.27735,-1.746881 1.93391,0.372435 1.9339,0.372436 V 89.513695 92.5 Z M 295.5,93 h -5.25511 l -1.31446,-1.583823 -1.31445,-1.583822 1.051,-1.666178 L 289.71797,86.5 h 5.78203 5.78203 l 1.05099,1.666177 1.051,1.666178 -1.31445,1.583822 L 300.75511,93 Z M 322.37244,92.98469 321.24489,93 l -1.31446,-1.583823 -1.31445,-1.583822 1.051,-1.666178 L 320.71797,86.5 h 2.39102 2.39101 l 0.33749,2.38691 0.33749,2.38691 -1.33749,0.847777 -1.33749,0.847777 -1.12756,0.01531 z M 105,85 H 86.93723 L 86.309468,83.364077 85.681705,81.728154 86.697346,80.114077 87.712986,78.5 98.356493,78.216168 109,77.932337 109.0153,71.716168 109.0306,65.5 l 0.84777,-1.337492 0.84778,-1.337492 2.38691,0.337492 L 115.5,63.5 l 0.29259,7.189818 0.2926,7.189819 3.10656,0.310181 3.10655,0.310182 1.01,1.614077 1.00999,1.614077 -0.62776,1.635923 L 123.06277,85 Z m 117.48832,-0.211679 -2.01168,0.28832 -1.23832,-1.23832 L 218,82.6 l 0.0153,-8.55 0.0153,-8.55 0.84777,-1.337492 0.84778,-1.337492 2.38691,0.337492 L 224.5,63.5 l 0.31336,3.25 0.31336,3.25 h 4.37328 4.37328 l 0.31336,-3.25 0.31336,-3.25 2.38691,-0.337492 2.38691,-0.337492 0.84778,1.337492 0.84777,1.337492 0.0153,3.115141 0.0153,3.115142 -2.03413,2.585973 -2.03412,2.585973 -5.71588,0.298885 L 225.5,77.5 225,81 l -0.5,3.5 z m 88.97064,0.004 -6.04104,0.292293 -0.70896,-0.70896 L 304,83.666694 V 81.440349 79.214005 L 305.58179,78.607016 307.16357,78 l 4.16822,0.01531 4.16821,0.01531 1.33749,0.847777 1.33749,0.847777 -0.33749,2.38691 L 317.5,84.5 311.45896,84.792294 Z M 263.09409,77 h -4.76076 L 257.66667,76.333333 257,75.666667 v -1.79815 -1.798149 L 258.93426,71.035184 260.86852,70 h 2.02193 2.02193 l 0.29381,-7.239395 0.29381,-7.239395 1.79804,-0.343181 1.79804,-0.34318 1.45196,1.20502 1.45196,1.20502 v 7.242697 7.242697 L 269.92742,74.365141 267.85484,77 Z M 83.198825,68.893592 81.276281,69.922507 79.515589,68.635058 77.754898,67.347609 78.463289,65.115665 79.171681,62.883722 81.83584,63.191861 84.5,63.5 l 0.310684,2.182339 0.310685,2.182339 z M 97.128571,70 H 96.4 L 95.2,68.8 94,67.6 v -2.580762 -2.580763 l -2.978093,-1.124104 -2.978094,-1.124105 -1.200779,-2.635423 -1.200779,-2.635423 0.942075,-2.678775 0.942075,-2.678776 2.668724,-1.497916 2.668725,-1.497916 2.818073,0.975686 2.818073,0.975687 1.408317,3.189744 1.408313,3.189744 3.09169,0.301551 L 107.5,55.5 l 0.33749,2.38691 0.33749,2.38691 -1.33749,0.847777 -1.33749,0.847777 -2.25,0.01531 L 101,62 v 2.428571 2.428572 L 99.428571,68.428571 97.857143,70 Z m 30.802749,0 h -0.68643 l -1.20502,-1.451961 -1.20502,-1.45196 0.34112,-1.79804 0.34113,-1.798039 2.65561,-0.308139 2.65561,-0.308139 0.70839,2.231943 0.70839,2.231944 -1.81368,1.326195 L 128.61774,70 Z m 33.2675,-1.106408 -1.92254,1.028915 -1.74688,-1.277351 -1.74688,-1.27735 0.37243,-1.933903 L 156.52739,63.5 h 2.98631 2.9863 l 0.31068,2.182339 0.31069,2.182339 z M 175,69.969374 h -0.5 l -1.33749,-0.847777 -1.33749,-0.847777 0.33749,-2.38691 L 172.5,63.5 h 2.5 2.5 l 0.33749,2.38691 0.33749,2.38691 -1.33749,0.847777 -1.33749,0.847777 z m 17.19882,-1.075782 -1.92254,1.028915 -1.74688,-1.277351 -1.74688,-1.27735 0.37243,-1.933903 L 187.52739,63.5 h 2.98631 2.9863 l 0.31068,2.182339 0.31069,2.182339 z M 206.12857,70 H 205.4 L 204.2,68.8 203,67.6 V 63.3 59 l 2,-2 2,-2 h 1.5 1.5 v -2.30887 -2.308871 l 1.3161,-1.79987 1.31609,-1.79987 1.93391,0.372435 1.9339,0.372436 v 5.465636 5.465636 L 213.28852,60.479331 210.07704,62.5 210.03852,64.678571 210,66.857143 208.42857,68.428571 206.85714,70 Z m 47.16606,-0.264876 -1.06249,0.354162 -1.67358,-1.673582 -1.67358,-1.673582 0.55751,-1.452848 L 250,63.836425 V 63.418213 63 h 2.53138 2.53139 l 0.62776,1.635923 0.62776,1.635923 -0.98059,1.554558 -0.98059,1.554558 z M 44,68.634769 37.5,68.969866 34.315943,67.734933 31.131886,66.5 26.719649,63.37895 22.307412,60.257899 19.653706,54.932605 17,49.607311 17.0098,43.053656 17.0196,36.5 l 2.363753,-5 2.363753,-5 2.876478,-2.691049 L 27.5,21.117902 32,19.080913 36.5,17.043924 43.053656,17.021962 49.607311,17 l 5.282809,2.632535 5.282809,2.632534 3.352464,4.617466 3.352463,4.617465 1.198297,4.275945 1.198297,4.275944 -0.553359,5.361537 -0.55336,5.361537 -1.695818,3.362519 L 64.776094,57.5 61.638047,60.837629 58.5,64.175258 l -4,2.062206 -4,2.062207 z m -2,-6.662308 2.5,0.01638 3.977454,-1.10423 3.977454,-1.10423 3.662739,-3.662739 3.662739,-3.662739 1.10423,-3.977454 1.10423,-3.977454 -0.01638,-2.5 -0.01638,-2.5 -1.851939,-4 -1.85194,-4 L 55.376099,28.813618 52.5,26.127237 49.6849,25.063618 46.869801,24 H 42.38524 37.90068 L 34.70034,25.620589 31.5,27.241178 29.64359,28.870589 27.787181,30.5 25.89359,34.210162 24,37.920324 v 4.474738 4.474739 l 1.063618,2.815099 1.063619,2.8151 2.686381,2.876099 2.686382,2.876098 4,1.85194 4,1.851939 2.5,0.01638 z m 2.5,-8.677134 -2,0.503578 L 39.312913,52.887163 36.125826,51.975421 34.062913,49.352852 32,46.730283 V 42.288218 37.846154 L 34.923077,34.923077 37.846154,32 h 4.442064 4.442065 l 2.600414,2.045486 2.600414,2.045486 0.99125,3.590012 0.99125,3.590012 -1.37328,3.286721 -1.37328,3.286721 -2.333525,1.473656 L 46.5,52.79175 Z m 263,15.542642 -5,-0.0099 -2.50647,-0.762436 -2.50648,-0.762435 -2.99352,-1.566293 L 291.5,64.170638 288.36195,60.835319 285.22391,57.5 l -1.69582,-3.362518 -1.69582,-3.362519 -0.55336,-5.361537 -0.55336,-5.361537 1.1983,-4.275944 1.19829,-4.275945 3.35247,-4.617465 3.35246,-4.617466 5.28281,-2.632534 L 300.39269,17 l 6.55365,0.02196 6.55366,0.02196 4.5,2.036989 4.5,2.036989 2.87648,2.691049 2.87648,2.691049 2.36375,5 2.36375,5 0.01,6.553656 0.01,6.553655 -2.65371,5.325294 -2.6537,5.325294 -4.41224,3.121051 -4.41224,3.12105 -3.18405,1.173922 -3.18406,1.173922 -5,-0.0099 z m 0,-6.903824 3,0.02193 4,-1.851939 4,-1.85194 2.68638,-2.876098 L 323.87276,52.5 324.93638,49.6849 326,46.869801 V 42.395062 37.920324 L 324.10641,34.210162 322.21282,30.5 320.35641,28.870589 318.5,27.241178 315.29966,25.620589 312.09932,24 h -4.48456 -4.48456 l -2.8151,1.063618 -2.8151,1.063619 -2.8761,2.686381 -2.8761,2.686382 -1.85194,4 -1.85194,4 -0.0164,2.5 -0.0164,2.5 1.0675,3.844425 1.0675,3.844425 3.17693,3.44732 3.17692,3.447321 4,1.414361 4,1.414362 3,0.02193 z m 1,-8.585946 -2,0.473901 -1.5,-0.484171 -1.5,-0.484171 -2.33531,-1.141517 -2.33532,-1.141517 -1.41468,-2.735702 L 296,45.09932 v -2.615402 -2.615401 l 1.11704,-2.184258 1.11704,-2.184259 2.13296,-1.727764 2.13296,-1.727764 4.5,0.0096 4.5,0.0096 1.54589,1.218196 1.54589,1.218197 1.70411,2.472506 L 318,39.445077 v 2.827154 2.827154 l -1.41469,2.735702 -1.41468,2.735702 -2.33532,1.151787 -2.33531,1.151788 -2,0.4739 z M 181.9534,62 h -0.88303 L 180.03518,60.065741 179,58.131483 V 56.1291 54.126717 L 175.75,53.813358 172.5,53.5 v -3 -3 l 3.25,-0.313358 3.25,-0.313359 V 42.436642 38 h -1.84501 -1.84501 L 173.65499,36.171259 172,34.342519 V 32.671259 31 h -4.43664 -4.43664 L 162.81336,34.25 162.5,37.5 h -3 -3 l -0.30604,-3.151893 -0.30604,-3.151893 -3.05419,-1.265085 -3.05419,-1.265086 -0.98759,-2.833021 L 147.80435,23 h -2.86699 -2.86699 l -0.95039,-1.775823 -0.9504,-1.775823 0.9649,-1.724177 L 142.09938,16 h 11.7278 11.72781 l 2.10824,1.476671 2.10824,1.476671 0.63332,2.523329 L 171.0381,24 h 9.30664 9.30663 l 2.17432,2.314451 L 194,28.628902 V 29.814451 31 h 4.28076 4.28076 l 1.11534,-2.954871 1.11534,-2.954871 2.61261,-0.655722 2.6126,-0.655722 0.60556,-2.412736 0.60556,-2.412736 2.10824,-1.476671 L 215.44501,16 h 2.60318 2.60318 l 2.17432,2.314451 L 225,20.628902 V 29.814451 39 h 4.45295 4.45294 l 2.43679,1.110272 2.43678,1.110272 1.11027,2.436781 L 241,46.094106 v 2.830502 2.830503 l -1.45196,1.20502 -1.45196,1.20502 -1.79804,-0.343929 L 234.5,53.477293 234,49.988647 233.5,46.5 227.51388,46 221.52777,45.5 219.51388,42.28852 217.5,39.07704 201.75,39.03852 186,39 v 4 4 h 6.87756 6.87755 l 1.31446,1.583823 1.31445,1.583822 -1.04678,1.666178 L 200.29046,53.5 193.14523,53.79381 186,54.087619 v 3.349202 3.349201 L 184.41821,61.393011 182.83643,62 Z M 245,61.969374 h -0.5 l -1.33749,-0.847777 -1.33749,-0.847777 0.33749,-2.38691 L 242.5,55.5 h 2.5 2.5 l 0.33749,2.38691 0.33749,2.38691 -1.33749,0.847777 L 245.5,61.969374 Z M 255.1679,54 h -3.92301 l -1.31446,-1.583823 -1.31445,-1.583822 1.04286,-1.666178 1.04286,-1.666177 2.94817,-0.298369 2.94817,-0.298369 1.11047,-2.941969 1.11047,-2.94197 2.65561,-1.009662 L 264.1302,39 h 2.24377 2.24377 l 1.81368,1.326196 1.81368,1.326195 -0.68994,2.173805 L 270.86522,46 H 267.43261 264 v 1.545455 1.545454 L 261.54545,51.545455 259.09091,54 Z M 81.877747,45.804095 79.255494,46.108191 78.627747,44.472308 78,42.836425 v -2.371159 -2.37116 l 1.137836,-2.497278 1.137836,-2.497277 2.862164,-0.997756 L 86,31.104039 V 29.726334 28.348628 L 88.314451,26.174314 90.628902,24 h 5.009184 5.009184 L 101.57363,20.25 102.5,16.5 h 2.5 2.5 l 0.91387,3.698864 0.91388,3.698863 3.07793,0.301137 3.07794,0.301136 0.34077,1.798039 0.34076,1.79804 -1.20502,1.45196 L 113.75511,31 H 103.62167 93.488223 l -1.29202,2.918876 -1.29202,2.918876 -2.883059,1.005039 -2.883058,1.00504 -0.319033,3.326084 L 84.5,45.5 Z M 250.81574,38.883999 249.5,38.767997 l -2,-0.487236 -2,-0.487236 -1.75,-1.55175 -1.75,-1.55175 V 32.908371 31.126717 L 238.85085,30.813358 235.7017,30.5 l -1.01,-1.614077 -1.00999,-1.614077 0.62776,-1.635923 L 234.93723,24 h 4.30888 4.30888 l 2.2225,1.556704 L 248,27.113408 V 29.056704 31 h 2.06574 2.06574 l 1.93426,1.035184 L 256,33.070368 V 35 36.929632 L 254.06574,37.964816 252.13148,39 Z M 132.05102,31 h -4.80613 l -1.20502,-1.451961 -1.20502,-1.45196 0.34229,-1.79804 0.3423,-1.798039 5.82465,-0.302421 5.82466,-0.302422 1.41562,1.174866 L 140,26.244889 v 0.806127 0.806127 L 138.42857,29.428571 136.85714,31 Z m 128.74984,-0.207111 -1.48478,0.292888 -1.24066,-1.494901 -1.24066,-1.4949 0.65001,-2.047988 L 258.13478,24 h 2.46399 2.464 l 0.62776,1.635923 0.62776,1.635923 -1.01633,1.614077 L 262.28563,30.5 Z M 198.5,23 h -1.25511 l -1.20502,-1.451961 -1.20502,-1.45196 0.34627,-1.79804 L 195.52739,16.5 h 2.37732 2.37732 l 1.05099,1.666177 1.051,1.666178 -1.31445,1.583822 L 199.75511,23 Z M 252.37244,22.98469 251.24489,23 l -1.31446,-1.583823 -1.31445,-1.583822 1.051,-1.666178 L 250.71797,16.5 h 2.39102 2.39101 l 0.33749,2.38691 0.33749,2.38691 -1.33749,0.847777 -1.33749,0.847777 -1.12756,0.01531 z"
       id="path847" />
  </g>
</svg>
